<svg xmlns="http://www.w3.org/2000/svg" xmlns:xlink="http://www.w3.org/1999/xlink" width="1640" zoomAndPan="magnify" viewBox="0 0 1230 693.000001" height="924" preserveAspectRatio="xMidYMid meet" version="1.0"><defs><g/><clipPath id="3cd3be5c60"><path d="M 0.886719 0 L 1229.113281 0 L 1229.113281 692 L 0.886719 692 Z M 0.886719 0 " clip-rule="nonzero"/></clipPath><clipPath id="9a4719593d"><path d="M 0.886719 0 L 1229.113281 0 L 1229.113281 692 L 0.886719 692 Z M 0.886719 0 " clip-rule="nonzero"/></clipPath><clipPath id="aec5db235f"><rect x="0" width="1230" y="0" height="692"/></clipPath><clipPath id="b4c795da4d"><path d="M 88.757812 226.21875 L 350.132812 226.21875 L 350.132812 487.589844 L 88.757812 487.589844 Z M 88.757812 226.21875 " clip-rule="nonzero"/></clipPath><clipPath id="ebba28961c"><rect x="0" width="717" y="0" height="248"/></clipPath></defs><g clip-path="url(#3cd3be5c60)"><g transform="matrix(1, 0, 0, 1, 0, -0.000000000000066872)"><g clip-path="url(#aec5db235f)"><g clip-path="url(#9a4719593d)"><rect x="-270.6" width="1771.2" fill="#ffffff" height="997.920001" y="-152.46" fill-opacity="1"/></g></g></g></g><g clip-path="url(#b4c795da4d)"><path fill="#1f5e5c" d="M 219.445312 477.1875 C 154.886719 477.1875 102.035156 426.0625 99.316406 362.132812 L 121.535156 362.132812 C 122.738281 386.855469 133.035156 410.015625 150.910156 427.734375 C 169.679688 446.398438 194.25 456.589844 220.28125 456.589844 C 220.648438 456.589844 221.011719 456.589844 221.328125 456.589844 C 275.484375 456.015625 319.34375 411.269531 319.082031 356.589844 C 318.347656 343.78125 313.539062 311.214844 285.414062 285.652344 C 261.578125 263.960938 234.5 259.570312 220.28125 258.835938 L 149.972656 258.835938 C 169.625 244.878906 193.570312 236.671875 219.445312 236.671875 C 285.730469 236.617188 339.675781 290.566406 339.675781 356.902344 C 339.675781 423.238281 285.730469 477.1875 219.445312 477.1875 Z M 164.503906 362.132812 L 188.289062 362.132812 C 202.457031 363.90625 214.21875 372.847656 218.976562 385.601562 C 223.417969 397.46875 220.019531 408.289062 217.511719 413.828125 C 189.332031 412.261719 166.699219 390.042969 164.503906 362.132812 Z M 113.117188 300.8125 L 218.714844 300.867188 C 234.132812 300.605469 248.773438 306.617188 259.851562 317.59375 C 270.777344 328.414062 276.789062 342.683594 276.738281 357.742188 C 276.683594 373.265625 270.359375 387.328125 260.164062 397.519531 C 260.847656 393.652344 261.265625 389.734375 261.265625 385.707031 C 261.265625 349.53125 233.246094 320.152344 198.796875 320.152344 L 104.964844 320.152344 C 107.109375 313.410156 109.875 306.929688 113.117188 300.8125 Z M 102.140625 330.503906 L 198.742188 330.503906 C 227.441406 330.503906 250.757812 355.230469 250.757812 385.65625 C 250.757812 393.289062 249.292969 400.605469 246.46875 407.503906 C 241.035156 410.382812 235.074219 412.316406 228.800781 413.257812 C 231.363281 405.625 233.246094 394.28125 228.644531 381.941406 C 222.476562 365.425781 207.367188 353.871094 189.125 351.730469 C 188.917969 351.730469 188.707031 351.675781 188.5 351.675781 L 99.316406 351.675781 C 99.632812 344.460938 100.574219 337.40625 102.140625 330.503906 Z M 137.214844 269.238281 L 219.96875 269.238281 C 232.566406 269.867188 256.925781 273.785156 278.359375 293.335938 C 303.660156 316.335938 307.945312 345.664062 308.625 356.902344 C 308.835938 405.625 269.628906 445.667969 221.171875 446.1875 C 197.75 446.449219 175.21875 437.25 158.230469 420.363281 C 142.339844 404.578125 133.136719 384.085938 131.988281 362.132812 L 154.101562 362.132812 C 156.351562 396.683594 185.046875 424.128906 220.125 424.390625 C 220.28125 424.390625 220.4375 424.441406 220.59375 424.441406 C 220.804688 424.441406 220.960938 424.390625 221.117188 424.390625 C 257.449219 424.078125 287.035156 394.332031 287.140625 357.792969 C 287.195312 339.914062 280.136719 323.03125 267.171875 310.222656 C 254.101562 297.257812 236.75 290.199219 218.609375 290.460938 L 119.285156 290.410156 C 124.460938 282.671875 130.472656 275.5625 137.214844 269.238281 Z M 219.445312 226.21875 C 185.9375 226.21875 155.355469 238.867188 132.25 259.671875 C 131.832031 259.988281 131.414062 260.300781 131.101562 260.71875 C 121.167969 269.867188 112.648438 280.53125 105.90625 292.34375 C 105.589844 292.761719 105.328125 293.183594 105.121094 293.703125 C 99.839844 303.164062 95.710938 313.359375 92.941406 324.128906 C 92.941406 324.179688 92.886719 324.230469 92.886719 324.285156 C 90.167969 334.738281 88.757812 345.664062 88.757812 356.902344 C 88.757812 428.9375 147.359375 487.589844 219.445312 487.589844 C 291.53125 487.589844 350.132812 428.9375 350.132812 356.902344 C 350.132812 284.867188 291.480469 226.21875 219.445312 226.21875 " fill-opacity="1" fill-rule="nonzero"/></g><g transform="matrix(1, 0, 0, 1, 416, 233)"><g clip-path="url(#ebba28961c)"><g fill="#1f5e5c" fill-opacity="1"><g transform="translate(0.388592, 189.801546)"><g><path d="M 14.328125 0 L 14.328125 -129 L 35.921875 -129 L 35.921875 -20.25 L 92.90625 -20.25 L 92.90625 0 Z M 14.328125 0 "/></g></g></g><g fill="#1f5e5c" fill-opacity="1"><g transform="translate(95.969974, 189.801546)"><g><path d="M 14.328125 -111.4375 L 14.328125 -131.25 L 35.921875 -131.25 L 35.921875 -111.4375 Z M 14.328125 0 L 14.328125 -96.75 L 35.921875 -96.75 L 35.921875 0 Z M 14.328125 0 "/></g></g></g><g fill="#1f5e5c" fill-opacity="1"><g transform="translate(146.224107, 189.801546)"><g><path d="M 20.96875 0 L 20.96875 -98.28125 C 20.96875 -100.726562 21.054688 -103.425781 21.234375 -106.375 C 21.410156 -109.332031 21.914062 -112.273438 22.75 -115.203125 C 23.59375 -118.128906 25.117188 -120.789062 27.328125 -123.1875 C 30.066406 -126.226562 33.035156 -128.332031 36.234375 -129.5 C 39.429688 -130.664062 42.582031 -131.320312 45.6875 -131.46875 C 48.789062 -131.613281 51.507812 -131.6875 53.84375 -131.6875 L 65.9375 -131.6875 L 65.9375 -114.125 L 54.734375 -114.125 C 50.617188 -114.125 47.554688 -113.09375 45.546875 -111.03125 C 43.546875 -108.976562 42.546875 -106.28125 42.546875 -102.9375 L 42.546875 0 Z M 5.375 -79.828125 L 5.375 -96.75 L 65.9375 -96.75 L 65.9375 -79.828125 Z M 5.375 -79.828125 "/></g></g></g><g fill="#1f5e5c" fill-opacity="1"><g transform="translate(210.36289, 189.801546)"><g><path d="M 56.53125 2.6875 C 46.738281 2.6875 38.140625 0.566406 30.734375 -3.671875 C 23.328125 -7.910156 17.546875 -13.789062 13.390625 -21.3125 C 9.242188 -28.84375 7.171875 -37.503906 7.171875 -47.296875 C 7.171875 -57.867188 9.195312 -67.050781 13.25 -74.84375 C 17.3125 -82.644531 22.957031 -88.691406 30.1875 -92.984375 C 37.414062 -97.285156 45.78125 -99.4375 55.28125 -99.4375 C 65.3125 -99.4375 73.832031 -97.09375 80.84375 -92.40625 C 87.863281 -87.71875 93.078125 -81.101562 96.484375 -72.5625 C 99.890625 -64.019531 101.175781 -53.957031 100.34375 -42.375 L 78.921875 -42.375 L 78.921875 -50.25 C 78.859375 -60.769531 77.003906 -68.445312 73.359375 -73.28125 C 69.722656 -78.113281 63.992188 -80.53125 56.171875 -80.53125 C 47.328125 -80.53125 40.753906 -77.796875 36.453125 -72.328125 C 32.160156 -66.867188 30.015625 -58.882812 30.015625 -48.375 C 30.015625 -38.582031 32.160156 -31 36.453125 -25.625 C 40.753906 -20.25 47.03125 -17.5625 55.28125 -17.5625 C 60.59375 -17.5625 65.171875 -18.738281 69.015625 -21.09375 C 72.867188 -23.457031 75.84375 -26.878906 77.9375 -31.359375 L 99.265625 -24.90625 C 95.554688 -16.1875 89.832031 -9.40625 82.09375 -4.5625 C 74.363281 0.269531 65.84375 2.6875 56.53125 2.6875 Z M 23.203125 -42.375 L 23.203125 -58.671875 L 89.765625 -58.671875 L 89.765625 -42.375 Z M 23.203125 -42.375 "/></g></g></g><g fill="#1f5e5c" fill-opacity="1"><g transform="translate(318.21672, 189.801546)"><g/></g></g><g fill="#1f5e5c" fill-opacity="1"><g transform="translate(354.048549, 189.801546)"><g><path d="M 67.09375 2.6875 C 54.195312 2.6875 43.148438 -0.132812 33.953125 -5.78125 C 24.753906 -11.425781 17.691406 -19.296875 12.765625 -29.390625 C 7.835938 -39.484375 5.375 -51.1875 5.375 -64.5 C 5.375 -77.820312 7.835938 -89.53125 12.765625 -99.625 C 17.691406 -109.71875 24.753906 -117.582031 33.953125 -123.21875 C 43.148438 -128.863281 54.195312 -131.6875 67.09375 -131.6875 C 81.96875 -131.6875 94.363281 -127.96875 104.28125 -120.53125 C 114.195312 -113.101562 121.15625 -103.085938 125.15625 -90.484375 L 103.375 -84.484375 C 100.875 -92.898438 96.601562 -99.484375 90.5625 -104.234375 C 84.53125 -108.984375 76.707031 -111.359375 67.09375 -111.359375 C 58.4375 -111.359375 51.222656 -109.414062 45.453125 -105.53125 C 39.691406 -101.644531 35.363281 -96.191406 32.46875 -89.171875 C 29.570312 -82.160156 28.097656 -73.9375 28.046875 -64.5 C 28.046875 -55.0625 29.492188 -46.832031 32.390625 -39.8125 C 35.285156 -32.800781 39.628906 -27.351562 45.421875 -23.46875 C 51.210938 -19.59375 58.4375 -17.65625 67.09375 -17.65625 C 76.707031 -17.65625 84.53125 -20.039062 90.5625 -24.8125 C 96.601562 -29.59375 100.875 -36.164062 103.375 -44.53125 L 125.15625 -38.515625 C 121.15625 -25.921875 114.195312 -15.90625 104.28125 -8.46875 C 94.363281 -1.03125 81.96875 2.6875 67.09375 2.6875 Z M 67.09375 2.6875 "/></g></g></g><g fill="#1f5e5c" fill-opacity="1"><g transform="translate(486.357596, 189.801546)"><g><path d="M 12.546875 0 L 12.546875 -129 L 90.21875 -129 L 90.21875 -107.40625 L 34.125 -107.40625 L 34.125 -75.25 L 79.46875 -75.25 L 79.46875 -53.75 L 34.125 -53.75 L 34.125 0 Z M 12.546875 0 "/></g></g></g><g fill="#1f5e5c" fill-opacity="1"><g transform="translate(580.147414, 189.801546)"><g><path d="M 67.09375 2.6875 C 54.195312 2.6875 43.148438 -0.132812 33.953125 -5.78125 C 24.753906 -11.425781 17.691406 -19.296875 12.765625 -29.390625 C 7.835938 -39.484375 5.375 -51.1875 5.375 -64.5 C 5.375 -77.820312 7.835938 -89.53125 12.765625 -99.625 C 17.691406 -109.71875 24.753906 -117.582031 33.953125 -123.21875 C 43.148438 -128.863281 54.195312 -131.6875 67.09375 -131.6875 C 80 -131.6875 91.0625 -128.863281 100.28125 -123.21875 C 109.507812 -117.582031 116.585938 -109.71875 121.515625 -99.625 C 126.453125 -89.53125 128.921875 -77.820312 128.921875 -64.5 C 128.921875 -51.1875 126.453125 -39.484375 121.515625 -29.390625 C 116.585938 -19.296875 109.507812 -11.425781 100.28125 -5.78125 C 91.0625 -0.132812 80 2.6875 67.09375 2.6875 Z M 67.09375 -17.65625 C 75.757812 -17.59375 82.972656 -19.5 88.734375 -23.375 C 94.492188 -27.257812 98.820312 -32.722656 101.71875 -39.765625 C 104.613281 -46.816406 106.0625 -55.0625 106.0625 -64.5 C 106.0625 -73.9375 104.613281 -82.132812 101.71875 -89.09375 C 98.820312 -96.050781 94.492188 -101.46875 88.734375 -105.34375 C 82.972656 -109.226562 75.757812 -111.234375 67.09375 -111.359375 C 58.4375 -111.410156 51.238281 -109.492188 45.5 -105.609375 C 39.769531 -101.734375 35.457031 -96.269531 32.5625 -89.21875 C 29.664062 -82.175781 28.21875 -73.9375 28.21875 -64.5 C 28.21875 -55.0625 29.648438 -46.863281 32.515625 -39.90625 C 35.378906 -32.945312 39.691406 -27.523438 45.453125 -23.640625 C 51.222656 -19.765625 58.4375 -17.769531 67.09375 -17.65625 Z M 67.09375 -17.65625 "/></g></g></g></g></g></svg>