<svg xmlns="http://www.w3.org/2000/svg" xmlns:xlink="http://www.w3.org/1999/xlink" width="1640" zoomAndPan="magnify" viewBox="0 0 1230 693.000001" height="924" preserveAspectRatio="xMidYMid meet" version="1.0"><defs><g/><clipPath id="b32f5e2d1a"><path d="M 0.886719 0 L 1229.113281 0 L 1229.113281 692 L 0.886719 692 Z M 0.886719 0 " clip-rule="nonzero"/></clipPath><clipPath id="d61804c8fd"><path d="M 0.886719 0 L 1229.113281 0 L 1229.113281 692 L 0.886719 692 Z M 0.886719 0 " clip-rule="nonzero"/></clipPath><clipPath id="bc9cead9c9"><rect x="0" width="1230" y="0" height="692"/></clipPath><clipPath id="b6d9f3e82d"><rect x="0" width="550" y="0" height="189"/></clipPath><clipPath id="30528e6e3d"><rect x="0" width="558" y="0" height="79"/></clipPath></defs><g clip-path="url(#b32f5e2d1a)"><path fill="#ffffff" d="M 0.886719 0 L 1229.113281 0 L 1229.113281 692 L 0.886719 692 Z M 0.886719 0 " fill-opacity="1" fill-rule="nonzero"/><path fill="#f6f4f1" d="M 0.886719 0 L 1229.113281 0 L 1229.113281 692 L 0.886719 692 Z M 0.886719 0 " fill-opacity="1" fill-rule="nonzero"/><g transform="matrix(1, 0, 0, 1, 0, -0.000000000000066872)"><g clip-path="url(#bc9cead9c9)"><g clip-path="url(#d61804c8fd)"><rect x="-270.6" width="1771.2" fill="#1f5e5c" height="997.920001" y="-152.46" fill-opacity="1"/></g></g></g></g><g transform="matrix(1, 0, 0, 1, 343, 254)"><g clip-path="url(#b6d9f3e82d)"><g fill="#ffffff" fill-opacity="1"><g transform="translate(0.707472, 144.855524)"><g><path d="M 10.984375 0 L 10.984375 -98.828125 L 27.515625 -98.828125 L 27.515625 -15.515625 L 71.171875 -15.515625 L 71.171875 0 Z M 10.984375 0 "/></g></g></g><g fill="#ffffff" fill-opacity="1"><g transform="translate(73.932088, 144.855524)"><g><path d="M 10.984375 -85.375 L 10.984375 -100.546875 L 27.515625 -100.546875 L 27.515625 -85.375 Z M 10.984375 0 L 10.984375 -74.125 L 27.515625 -74.125 L 27.515625 0 Z M 10.984375 0 "/></g></g></g><g fill="#ffffff" fill-opacity="1"><g transform="translate(112.431631, 144.855524)"><g><path d="M 16.0625 0 L 16.0625 -75.296875 C 16.0625 -77.171875 16.128906 -79.238281 16.265625 -81.5 C 16.398438 -83.769531 16.785156 -86.023438 17.421875 -88.265625 C 18.066406 -90.503906 19.238281 -92.539062 20.9375 -94.375 C 23.039062 -96.707031 25.316406 -98.316406 27.765625 -99.203125 C 30.210938 -100.097656 32.625 -100.601562 35 -100.71875 C 37.382812 -100.832031 39.46875 -100.890625 41.25 -100.890625 L 50.515625 -100.890625 L 50.515625 -87.4375 L 41.9375 -87.4375 C 38.78125 -87.4375 36.429688 -86.644531 34.890625 -85.0625 C 33.359375 -83.488281 32.59375 -81.421875 32.59375 -78.859375 L 32.59375 0 Z M 4.125 -61.15625 L 4.125 -74.125 L 50.515625 -74.125 L 50.515625 -61.15625 Z M 4.125 -61.15625 "/></g></g></g><g fill="#ffffff" fill-opacity="1"><g transform="translate(161.568164, 144.855524)"><g><path d="M 43.3125 2.0625 C 35.800781 2.0625 29.207031 0.4375 23.53125 -2.8125 C 17.863281 -6.0625 13.4375 -10.566406 10.25 -16.328125 C 7.070312 -22.097656 5.484375 -28.734375 5.484375 -36.234375 C 5.484375 -44.335938 7.039062 -51.375 10.15625 -57.34375 C 13.269531 -63.3125 17.59375 -67.941406 23.125 -71.234375 C 28.664062 -74.535156 35.070312 -76.1875 42.34375 -76.1875 C 50.03125 -76.1875 56.5625 -74.390625 61.9375 -70.796875 C 67.3125 -67.203125 71.300781 -62.132812 73.90625 -55.59375 C 76.519531 -49.050781 77.507812 -41.34375 76.875 -32.46875 L 60.46875 -32.46875 L 60.46875 -38.5 C 60.414062 -46.550781 58.992188 -52.429688 56.203125 -56.140625 C 53.421875 -59.847656 49.03125 -61.703125 43.03125 -61.703125 C 36.257812 -61.703125 31.222656 -59.609375 27.921875 -55.421875 C 24.628906 -51.234375 22.984375 -45.113281 22.984375 -37.0625 C 22.984375 -29.5625 24.628906 -23.75 27.921875 -19.625 C 31.222656 -15.507812 36.03125 -13.453125 42.34375 -13.453125 C 46.414062 -13.453125 49.925781 -14.351562 52.875 -16.15625 C 55.832031 -17.96875 58.109375 -20.585938 59.703125 -24.015625 L 76.046875 -19.078125 C 73.210938 -12.398438 68.832031 -7.207031 62.90625 -3.5 C 56.976562 0.207031 50.445312 2.0625 43.3125 2.0625 Z M 17.78125 -32.46875 L 17.78125 -44.953125 L 68.765625 -44.953125 L 68.765625 -32.46875 Z M 17.78125 -32.46875 "/></g></g></g><g fill="#ffffff" fill-opacity="1"><g transform="translate(244.194667, 144.855524)"><g/></g></g><g fill="#ffffff" fill-opacity="1"><g transform="translate(271.645325, 144.855524)"><g><path d="M 51.40625 2.0625 C 41.519531 2.0625 33.050781 -0.0976562 26 -4.421875 C 18.957031 -8.742188 13.550781 -14.769531 9.78125 -22.5 C 6.007812 -30.238281 4.125 -39.210938 4.125 -49.421875 C 4.125 -59.617188 6.007812 -68.582031 9.78125 -76.3125 C 13.550781 -84.050781 18.957031 -90.082031 26 -94.40625 C 33.050781 -98.726562 41.519531 -100.890625 51.40625 -100.890625 C 62.800781 -100.890625 72.296875 -98.039062 79.890625 -92.34375 C 87.484375 -86.644531 92.8125 -78.96875 95.875 -69.3125 L 79.203125 -64.71875 C 77.273438 -71.164062 74 -76.207031 69.375 -79.84375 C 64.757812 -83.488281 58.769531 -85.3125 51.40625 -85.3125 C 44.769531 -85.3125 39.242188 -83.820312 34.828125 -80.84375 C 30.410156 -77.875 27.09375 -73.703125 24.875 -68.328125 C 22.65625 -62.953125 21.523438 -56.648438 21.484375 -49.421875 C 21.484375 -42.191406 22.59375 -35.882812 24.8125 -30.5 C 27.03125 -25.125 30.359375 -20.945312 34.796875 -17.96875 C 39.234375 -15 44.769531 -13.515625 51.40625 -13.515625 C 58.769531 -13.515625 64.757812 -15.34375 69.375 -19 C 74 -22.664062 77.273438 -27.703125 79.203125 -34.109375 L 95.875 -29.515625 C 92.8125 -19.859375 87.484375 -12.179688 79.890625 -6.484375 C 72.296875 -0.785156 62.800781 2.0625 51.40625 2.0625 Z M 51.40625 2.0625 "/></g></g></g><g fill="#ffffff" fill-opacity="1"><g transform="translate(373.006897, 144.855524)"><g><path d="M 9.609375 0 L 9.609375 -98.828125 L 69.109375 -98.828125 L 69.109375 -82.296875 L 26.15625 -82.296875 L 26.15625 -57.65625 L 60.875 -57.65625 L 60.875 -41.1875 L 26.15625 -41.1875 L 26.15625 0 Z M 9.609375 0 "/></g></g></g><g fill="#ffffff" fill-opacity="1"><g transform="translate(444.859002, 144.855524)"><g><path d="M 51.40625 2.0625 C 41.519531 2.0625 33.050781 -0.0976562 26 -4.421875 C 18.957031 -8.742188 13.550781 -14.769531 9.78125 -22.5 C 6.007812 -30.238281 4.125 -39.210938 4.125 -49.421875 C 4.125 -59.617188 6.007812 -68.582031 9.78125 -76.3125 C 13.550781 -84.050781 18.957031 -90.082031 26 -94.40625 C 33.050781 -98.726562 41.519531 -100.890625 51.40625 -100.890625 C 61.289062 -100.890625 69.765625 -98.726562 76.828125 -94.40625 C 83.898438 -90.082031 89.320312 -84.050781 93.09375 -76.3125 C 96.875 -68.582031 98.765625 -59.617188 98.765625 -49.421875 C 98.765625 -39.210938 96.875 -30.238281 93.09375 -22.5 C 89.320312 -14.769531 83.898438 -8.742188 76.828125 -4.421875 C 69.765625 -0.0976562 61.289062 2.0625 51.40625 2.0625 Z M 51.40625 -13.515625 C 58.039062 -13.472656 63.566406 -14.9375 67.984375 -17.90625 C 72.398438 -20.882812 75.71875 -25.070312 77.9375 -30.46875 C 80.15625 -35.875 81.265625 -42.191406 81.265625 -49.421875 C 81.265625 -56.648438 80.15625 -62.925781 77.9375 -68.25 C 75.71875 -73.582031 72.398438 -77.734375 67.984375 -80.703125 C 63.566406 -83.679688 58.039062 -85.21875 51.40625 -85.3125 C 44.769531 -85.351562 39.253906 -83.882812 34.859375 -80.90625 C 30.472656 -77.9375 27.171875 -73.753906 24.953125 -68.359375 C 22.734375 -62.960938 21.625 -56.648438 21.625 -49.421875 C 21.625 -42.191406 22.71875 -35.910156 24.90625 -30.578125 C 27.101562 -25.242188 30.410156 -21.085938 34.828125 -18.109375 C 39.242188 -15.140625 44.769531 -13.609375 51.40625 -13.515625 Z M 51.40625 -13.515625 "/></g></g></g></g></g><g transform="matrix(1, 0, 0, 1, 345, 426)"><g clip-path="url(#30528e6e3d)"><g fill="#ffffff" fill-opacity="1"><g transform="translate(1.929543, 58.90549)"><g><path d="M 3.953125 0 L 3.953125 -40.71875 L 16.3125 -40.71875 C 16.75 -40.71875 17.488281 -40.707031 18.53125 -40.6875 C 19.582031 -40.675781 20.585938 -40.601562 21.546875 -40.46875 C 24.640625 -40.03125 27.222656 -38.878906 29.296875 -37.015625 C 31.367188 -35.148438 32.921875 -32.773438 33.953125 -29.890625 C 34.992188 -27.003906 35.515625 -23.828125 35.515625 -20.359375 C 35.515625 -16.890625 34.992188 -13.710938 33.953125 -10.828125 C 32.921875 -7.941406 31.367188 -5.566406 29.296875 -3.703125 C 27.222656 -1.835938 24.640625 -0.6875 21.546875 -0.25 C 20.609375 -0.132812 19.597656 -0.0625 18.515625 -0.03125 C 17.441406 -0.0078125 16.707031 0 16.3125 0 Z M 8.265625 -3.984375 L 16.3125 -3.984375 C 17.09375 -3.984375 17.929688 -4.003906 18.828125 -4.046875 C 19.722656 -4.097656 20.488281 -4.191406 21.125 -4.328125 C 23.5 -4.742188 25.414062 -5.703125 26.875 -7.203125 C 28.34375 -8.710938 29.414062 -10.601562 30.09375 -12.875 C 30.769531 -15.15625 31.109375 -17.648438 31.109375 -20.359375 C 31.109375 -23.097656 30.769531 -25.609375 30.09375 -27.890625 C 29.414062 -30.171875 28.335938 -32.054688 26.859375 -33.546875 C 25.390625 -35.035156 23.476562 -35.984375 21.125 -36.390625 C 20.488281 -36.523438 19.710938 -36.613281 18.796875 -36.65625 C 17.878906 -36.707031 17.050781 -36.734375 16.3125 -36.734375 L 8.265625 -36.734375 Z M 8.265625 -3.984375 "/></g></g></g><g fill="#ffffff" fill-opacity="1"><g transform="translate(39.899354, 58.90549)"><g><path d="M 16.890625 0.84375 C 13.910156 0.84375 11.328125 0.1875 9.140625 -1.125 C 6.960938 -2.445312 5.269531 -4.304688 4.0625 -6.703125 C 2.863281 -9.097656 2.265625 -11.90625 2.265625 -15.125 C 2.265625 -18.46875 2.859375 -21.351562 4.046875 -23.78125 C 5.234375 -26.21875 6.90625 -28.09375 9.0625 -29.40625 C 11.21875 -30.726562 13.769531 -31.390625 16.71875 -31.390625 C 19.726562 -31.390625 22.296875 -30.695312 24.421875 -29.3125 C 26.554688 -27.925781 28.171875 -25.941406 29.265625 -23.359375 C 30.359375 -20.773438 30.859375 -17.691406 30.765625 -14.109375 L 26.53125 -14.109375 L 26.53125 -15.578125 C 26.457031 -19.535156 25.601562 -22.523438 23.96875 -24.546875 C 22.332031 -26.566406 19.953125 -27.578125 16.828125 -27.578125 C 13.546875 -27.578125 11.03125 -26.507812 9.28125 -24.375 C 7.539062 -22.25 6.671875 -19.210938 6.671875 -15.265625 C 6.671875 -11.421875 7.539062 -8.4375 9.28125 -6.3125 C 11.03125 -4.195312 13.507812 -3.140625 16.71875 -3.140625 C 18.90625 -3.140625 20.8125 -3.644531 22.4375 -4.65625 C 24.070312 -5.664062 25.359375 -7.117188 26.296875 -9.015625 L 30.171875 -7.515625 C 28.960938 -4.859375 27.1875 -2.800781 24.84375 -1.34375 C 22.5 0.113281 19.847656 0.84375 16.890625 0.84375 Z M 5.203125 -14.109375 L 5.203125 -17.59375 L 28.53125 -17.59375 L 28.53125 -14.109375 Z M 5.203125 -14.109375 "/></g></g></g><g fill="#ffffff" fill-opacity="1"><g transform="translate(72.949751, 58.90549)"><g><path d="M 16.625 0.84375 C 13.550781 0.84375 10.945312 0.15625 8.8125 -1.21875 C 6.6875 -2.59375 5.070312 -4.488281 3.96875 -6.90625 C 2.863281 -9.332031 2.296875 -12.117188 2.265625 -15.265625 C 2.296875 -18.472656 2.878906 -21.285156 4.015625 -23.703125 C 5.148438 -26.128906 6.78125 -28.015625 8.90625 -29.359375 C 11.039062 -30.710938 13.625 -31.390625 16.65625 -31.390625 C 19.75 -31.390625 22.441406 -30.632812 24.734375 -29.125 C 27.023438 -27.613281 28.59375 -25.550781 29.4375 -22.9375 L 25.375 -21.640625 C 24.65625 -23.460938 23.515625 -24.878906 21.953125 -25.890625 C 20.398438 -26.898438 18.625 -27.40625 16.625 -27.40625 C 14.382812 -27.40625 12.53125 -26.890625 11.0625 -25.859375 C 9.59375 -24.835938 8.5 -23.410156 7.78125 -21.578125 C 7.0625 -19.742188 6.691406 -17.640625 6.671875 -15.265625 C 6.710938 -11.609375 7.5625 -8.671875 9.21875 -6.453125 C 10.875 -4.242188 13.34375 -3.140625 16.625 -3.140625 C 18.695312 -3.140625 20.460938 -3.613281 21.921875 -4.5625 C 23.390625 -5.519531 24.5 -6.910156 25.25 -8.734375 L 29.4375 -7.5 C 28.3125 -4.78125 26.65625 -2.707031 24.46875 -1.28125 C 22.28125 0.132812 19.664062 0.84375 16.625 0.84375 Z M 16.625 0.84375 "/></g></g></g><g fill="#ffffff" fill-opacity="1"><g transform="translate(103.398921, 58.90549)"><g><path d="M 4.53125 -36.34375 L 4.53125 -41 L 8.6875 -41 L 8.6875 -36.34375 Z M 4.53125 0 L 4.53125 -30.546875 L 8.6875 -30.546875 L 8.6875 0 Z M 4.53125 0 "/></g></g></g><g fill="#ffffff" fill-opacity="1"><g transform="translate(116.602131, 58.90549)"><g><path d="M 15.359375 0.8125 C 11.773438 0.8125 8.828125 0.0390625 6.515625 -1.5 C 4.203125 -3.039062 2.785156 -5.191406 2.265625 -7.953125 L 6.5 -8.65625 C 6.957031 -6.914062 7.988281 -5.53125 9.59375 -4.5 C 11.207031 -3.476562 13.203125 -2.96875 15.578125 -2.96875 C 17.898438 -2.96875 19.726562 -3.453125 21.0625 -4.421875 C 22.40625 -5.390625 23.078125 -6.71875 23.078125 -8.40625 C 23.078125 -9.34375 22.863281 -10.109375 22.4375 -10.703125 C 22.019531 -11.296875 21.160156 -11.847656 19.859375 -12.359375 C 18.554688 -12.867188 16.613281 -13.472656 14.03125 -14.171875 C 11.257812 -14.921875 9.085938 -15.671875 7.515625 -16.421875 C 5.953125 -17.179688 4.84375 -18.054688 4.1875 -19.046875 C 3.53125 -20.035156 3.203125 -21.25 3.203125 -22.6875 C 3.203125 -24.414062 3.691406 -25.9375 4.671875 -27.25 C 5.648438 -28.5625 7.003906 -29.578125 8.734375 -30.296875 C 10.472656 -31.023438 12.492188 -31.390625 14.796875 -31.390625 C 17.085938 -31.390625 19.144531 -31.015625 20.96875 -30.265625 C 22.789062 -29.523438 24.253906 -28.484375 25.359375 -27.140625 C 26.472656 -25.804688 27.132812 -24.253906 27.34375 -22.484375 L 23.109375 -21.71875 C 22.828125 -23.507812 21.9375 -24.925781 20.4375 -25.96875 C 18.9375 -27.019531 17.035156 -27.566406 14.734375 -27.609375 C 12.566406 -27.660156 10.800781 -27.25 9.4375 -26.375 C 8.082031 -25.5 7.40625 -24.332031 7.40625 -22.875 C 7.40625 -22.0625 7.648438 -21.367188 8.140625 -20.796875 C 8.628906 -20.222656 9.519531 -19.679688 10.8125 -19.171875 C 12.101562 -18.660156 13.945312 -18.101562 16.34375 -17.5 C 19.15625 -16.789062 21.363281 -16.039062 22.96875 -15.25 C 24.570312 -14.457031 25.710938 -13.519531 26.390625 -12.4375 C 27.066406 -11.363281 27.40625 -10.035156 27.40625 -8.453125 C 27.40625 -5.566406 26.332031 -3.300781 24.1875 -1.65625 C 22.050781 -0.0078125 19.109375 0.8125 15.359375 0.8125 Z M 15.359375 0.8125 "/></g></g></g><g fill="#ffffff" fill-opacity="1"><g transform="translate(146.288146, 58.90549)"><g><path d="M 4.53125 -36.34375 L 4.53125 -41 L 8.6875 -41 L 8.6875 -36.34375 Z M 4.53125 0 L 4.53125 -30.546875 L 8.6875 -30.546875 L 8.6875 0 Z M 4.53125 0 "/></g></g></g><g fill="#ffffff" fill-opacity="1"><g transform="translate(159.491356, 58.90549)"><g><path d="M 16.71875 0.84375 C 13.675781 0.84375 11.082031 0.15625 8.9375 -1.21875 C 6.789062 -2.59375 5.140625 -4.492188 3.984375 -6.921875 C 2.835938 -9.359375 2.265625 -12.148438 2.265625 -15.296875 C 2.265625 -18.503906 2.847656 -21.3125 4.015625 -23.71875 C 5.179688 -26.132812 6.84375 -28.015625 9 -29.359375 C 11.164062 -30.710938 13.738281 -31.390625 16.71875 -31.390625 C 19.769531 -31.390625 22.375 -30.707031 24.53125 -29.34375 C 26.6875 -27.976562 28.332031 -26.082031 29.46875 -23.65625 C 30.613281 -21.226562 31.1875 -18.441406 31.1875 -15.296875 C 31.1875 -12.097656 30.613281 -9.285156 29.46875 -6.859375 C 28.320312 -4.429688 26.660156 -2.539062 24.484375 -1.1875 C 22.316406 0.164062 19.726562 0.84375 16.71875 0.84375 Z M 16.71875 -3.140625 C 20.113281 -3.140625 22.640625 -4.265625 24.296875 -6.515625 C 25.953125 -8.765625 26.78125 -11.691406 26.78125 -15.296875 C 26.78125 -18.992188 25.945312 -21.9375 24.28125 -24.125 C 22.613281 -26.3125 20.09375 -27.40625 16.71875 -27.40625 C 14.4375 -27.40625 12.554688 -26.890625 11.078125 -25.859375 C 9.597656 -24.835938 8.492188 -23.414062 7.765625 -21.59375 C 7.035156 -19.769531 6.671875 -17.671875 6.671875 -15.296875 C 6.671875 -11.617188 7.519531 -8.671875 9.21875 -6.453125 C 10.914062 -4.242188 13.414062 -3.140625 16.71875 -3.140625 Z M 16.71875 -3.140625 "/></g></g></g><g fill="#ffffff" fill-opacity="1"><g transform="translate(192.937587, 58.90549)"><g><path d="M 26.015625 0 L 26.015625 -15.578125 C 26.015625 -17.273438 25.851562 -18.835938 25.53125 -20.265625 C 25.21875 -21.691406 24.707031 -22.9375 24 -24 C 23.289062 -25.0625 22.375 -25.882812 21.25 -26.46875 C 20.132812 -27.050781 18.773438 -27.34375 17.171875 -27.34375 C 15.691406 -27.34375 14.390625 -27.085938 13.265625 -26.578125 C 12.148438 -26.078125 11.207031 -25.347656 10.4375 -24.390625 C 9.675781 -23.441406 9.097656 -22.285156 8.703125 -20.921875 C 8.304688 -19.566406 8.109375 -18.023438 8.109375 -16.296875 L 5.171875 -16.9375 C 5.171875 -20.070312 5.71875 -22.703125 6.8125 -24.828125 C 7.90625 -26.960938 9.410156 -28.578125 11.328125 -29.671875 C 13.253906 -30.765625 15.460938 -31.3125 17.953125 -31.3125 C 19.785156 -31.3125 21.382812 -31.023438 22.75 -30.453125 C 24.113281 -29.890625 25.269531 -29.125 26.21875 -28.15625 C 27.175781 -27.195312 27.945312 -26.097656 28.53125 -24.859375 C 29.113281 -23.628906 29.535156 -22.320312 29.796875 -20.9375 C 30.066406 -19.550781 30.203125 -18.171875 30.203125 -16.796875 L 30.203125 0 Z M 3.9375 0 L 3.9375 -30.546875 L 7.6875 -30.546875 L 7.6875 -23.015625 L 8.109375 -23.015625 L 8.109375 0 Z M 3.9375 0 "/></g></g></g><g fill="#ffffff" fill-opacity="1"><g transform="translate(226.52517, 58.90549)"><g/></g></g><g fill="#ffffff" fill-opacity="1"><g transform="translate(237.83412, 58.90549)"><g><path d="M 4.53125 0 L 4.53125 -40.71875 L 8.6875 -40.71875 L 8.6875 0 Z M 4.53125 0 "/></g></g></g><g fill="#ffffff" fill-opacity="1"><g transform="translate(251.03733, 58.90549)"><g><path d="M 26.015625 0 L 26.015625 -15.578125 C 26.015625 -17.273438 25.851562 -18.835938 25.53125 -20.265625 C 25.21875 -21.691406 24.707031 -22.9375 24 -24 C 23.289062 -25.0625 22.375 -25.882812 21.25 -26.46875 C 20.132812 -27.050781 18.773438 -27.34375 17.171875 -27.34375 C 15.691406 -27.34375 14.390625 -27.085938 13.265625 -26.578125 C 12.148438 -26.078125 11.207031 -25.347656 10.4375 -24.390625 C 9.675781 -23.441406 9.097656 -22.285156 8.703125 -20.921875 C 8.304688 -19.566406 8.109375 -18.023438 8.109375 -16.296875 L 5.171875 -16.9375 C 5.171875 -20.070312 5.71875 -22.703125 6.8125 -24.828125 C 7.90625 -26.960938 9.410156 -28.578125 11.328125 -29.671875 C 13.253906 -30.765625 15.460938 -31.3125 17.953125 -31.3125 C 19.785156 -31.3125 21.382812 -31.023438 22.75 -30.453125 C 24.113281 -29.890625 25.269531 -29.125 26.21875 -28.15625 C 27.175781 -27.195312 27.945312 -26.097656 28.53125 -24.859375 C 29.113281 -23.628906 29.535156 -22.320312 29.796875 -20.9375 C 30.066406 -19.550781 30.203125 -18.171875 30.203125 -16.796875 L 30.203125 0 Z M 3.9375 0 L 3.9375 -30.546875 L 7.6875 -30.546875 L 7.6875 -23.015625 L 8.109375 -23.015625 L 8.109375 0 Z M 3.9375 0 "/></g></g></g><g fill="#ffffff" fill-opacity="1"><g transform="translate(284.624912, 58.90549)"><g><path d="M 20.59375 0 C 18.875 0.351562 17.179688 0.492188 15.515625 0.421875 C 13.847656 0.347656 12.359375 -0.00390625 11.046875 -0.640625 C 9.734375 -1.285156 8.738281 -2.285156 8.0625 -3.640625 C 7.507812 -4.773438 7.207031 -5.921875 7.15625 -7.078125 C 7.113281 -8.242188 7.09375 -9.570312 7.09375 -11.0625 L 7.09375 -39.03125 L 11.234375 -39.03125 L 11.234375 -11.234375 C 11.234375 -9.941406 11.242188 -8.867188 11.265625 -8.015625 C 11.296875 -7.160156 11.488281 -6.398438 11.84375 -5.734375 C 12.53125 -4.472656 13.613281 -3.71875 15.09375 -3.46875 C 16.570312 -3.226562 18.40625 -3.285156 20.59375 -3.640625 Z M 0.5625 -26.984375 L 0.5625 -30.546875 L 20.59375 -30.546875 L 20.59375 -26.984375 Z M 0.5625 -26.984375 "/></g></g></g><g fill="#ffffff" fill-opacity="1"><g transform="translate(306.139927, 58.90549)"><g><path d="M 16.890625 0.84375 C 13.910156 0.84375 11.328125 0.1875 9.140625 -1.125 C 6.960938 -2.445312 5.269531 -4.304688 4.0625 -6.703125 C 2.863281 -9.097656 2.265625 -11.90625 2.265625 -15.125 C 2.265625 -18.46875 2.859375 -21.351562 4.046875 -23.78125 C 5.234375 -26.21875 6.90625 -28.09375 9.0625 -29.40625 C 11.21875 -30.726562 13.769531 -31.390625 16.71875 -31.390625 C 19.726562 -31.390625 22.296875 -30.695312 24.421875 -29.3125 C 26.554688 -27.925781 28.171875 -25.941406 29.265625 -23.359375 C 30.359375 -20.773438 30.859375 -17.691406 30.765625 -14.109375 L 26.53125 -14.109375 L 26.53125 -15.578125 C 26.457031 -19.535156 25.601562 -22.523438 23.96875 -24.546875 C 22.332031 -26.566406 19.953125 -27.578125 16.828125 -27.578125 C 13.546875 -27.578125 11.03125 -26.507812 9.28125 -24.375 C 7.539062 -22.25 6.671875 -19.210938 6.671875 -15.265625 C 6.671875 -11.421875 7.539062 -8.4375 9.28125 -6.3125 C 11.03125 -4.195312 13.507812 -3.140625 16.71875 -3.140625 C 18.90625 -3.140625 20.8125 -3.644531 22.4375 -4.65625 C 24.070312 -5.664062 25.359375 -7.117188 26.296875 -9.015625 L 30.171875 -7.515625 C 28.960938 -4.859375 27.1875 -2.800781 24.84375 -1.34375 C 22.5 0.113281 19.847656 0.84375 16.890625 0.84375 Z M 5.203125 -14.109375 L 5.203125 -17.59375 L 28.53125 -17.59375 L 28.53125 -14.109375 Z M 5.203125 -14.109375 "/></g></g></g><g fill="#ffffff" fill-opacity="1"><g transform="translate(339.190324, 58.90549)"><g><path d="M 4.53125 0 L 4.53125 -41.578125 L 8.6875 -41.578125 L 8.6875 0 Z M 4.53125 0 "/></g></g></g><g fill="#ffffff" fill-opacity="1"><g transform="translate(352.393534, 58.90549)"><g><path d="M 4.53125 0 L 4.53125 -41.578125 L 8.6875 -41.578125 L 8.6875 0 Z M 4.53125 0 "/></g></g></g><g fill="#ffffff" fill-opacity="1"><g transform="translate(365.596744, 58.90549)"><g><path d="M 4.53125 -36.34375 L 4.53125 -41 L 8.6875 -41 L 8.6875 -36.34375 Z M 4.53125 0 L 4.53125 -30.546875 L 8.6875 -30.546875 L 8.6875 0 Z M 4.53125 0 "/></g></g></g><g fill="#ffffff" fill-opacity="1"><g transform="translate(378.799954, 58.90549)"><g><path d="M 16.09375 14.421875 C 14.53125 14.421875 12.988281 14.1875 11.46875 13.71875 C 9.945312 13.257812 8.546875 12.535156 7.265625 11.546875 C 5.984375 10.554688 4.910156 9.269531 4.046875 7.6875 L 7.8125 5.59375 C 8.65625 7.289062 9.84375 8.507812 11.375 9.25 C 12.914062 10 14.488281 10.375 16.09375 10.375 C 18.300781 10.375 20.085938 9.960938 21.453125 9.140625 C 22.816406 8.328125 23.8125 7.117188 24.4375 5.515625 C 25.0625 3.910156 25.363281 1.910156 25.34375 -0.484375 L 25.34375 -8.625 L 25.828125 -8.625 L 25.828125 -30.546875 L 29.53125 -30.546875 L 29.53125 -0.421875 C 29.53125 0.441406 29.503906 1.273438 29.453125 2.078125 C 29.410156 2.878906 29.320312 3.664062 29.1875 4.4375 C 28.832031 6.71875 28.09375 8.59375 26.96875 10.0625 C 25.84375 11.539062 24.367188 12.632812 22.546875 13.34375 C 20.734375 14.0625 18.582031 14.421875 16.09375 14.421875 Z M 15.8125 0.84375 C 12.957031 0.84375 10.519531 0.132812 8.5 -1.28125 C 6.488281 -2.707031 4.945312 -4.632812 3.875 -7.0625 C 2.800781 -9.5 2.265625 -12.242188 2.265625 -15.296875 C 2.265625 -18.335938 2.796875 -21.070312 3.859375 -23.5 C 4.921875 -25.9375 6.453125 -27.859375 8.453125 -29.265625 C 10.453125 -30.679688 12.847656 -31.390625 15.640625 -31.390625 C 18.503906 -31.390625 20.914062 -30.691406 22.875 -29.296875 C 24.84375 -27.898438 26.328125 -25.988281 27.328125 -23.5625 C 28.335938 -21.144531 28.84375 -18.390625 28.84375 -15.296875 C 28.84375 -12.265625 28.34375 -9.523438 27.34375 -7.078125 C 26.34375 -4.640625 24.867188 -2.707031 22.921875 -1.28125 C 20.984375 0.132812 18.613281 0.84375 15.8125 0.84375 Z M 16.234375 -3.03125 C 18.398438 -3.03125 20.191406 -3.554688 21.609375 -4.609375 C 23.023438 -5.660156 24.082031 -7.113281 24.78125 -8.96875 C 25.476562 -10.832031 25.828125 -12.941406 25.828125 -15.296875 C 25.828125 -17.691406 25.476562 -19.804688 24.78125 -21.640625 C 24.082031 -23.484375 23.03125 -24.921875 21.625 -25.953125 C 20.21875 -26.992188 18.445312 -27.515625 16.3125 -27.515625 C 14.125 -27.515625 12.3125 -26.976562 10.875 -25.90625 C 9.445312 -24.832031 8.390625 -23.367188 7.703125 -21.515625 C 7.015625 -19.671875 6.671875 -17.597656 6.671875 -15.296875 C 6.671875 -12.984375 7.023438 -10.894531 7.734375 -9.03125 C 8.441406 -7.175781 9.5 -5.710938 10.90625 -4.640625 C 12.320312 -3.566406 14.097656 -3.03125 16.234375 -3.03125 Z M 16.234375 -3.03125 "/></g></g></g><g fill="#ffffff" fill-opacity="1"><g transform="translate(412.274447, 58.90549)"><g><path d="M 16.890625 0.84375 C 13.910156 0.84375 11.328125 0.1875 9.140625 -1.125 C 6.960938 -2.445312 5.269531 -4.304688 4.0625 -6.703125 C 2.863281 -9.097656 2.265625 -11.90625 2.265625 -15.125 C 2.265625 -18.46875 2.859375 -21.351562 4.046875 -23.78125 C 5.234375 -26.21875 6.90625 -28.09375 9.0625 -29.40625 C 11.21875 -30.726562 13.769531 -31.390625 16.71875 -31.390625 C 19.726562 -31.390625 22.296875 -30.695312 24.421875 -29.3125 C 26.554688 -27.925781 28.171875 -25.941406 29.265625 -23.359375 C 30.359375 -20.773438 30.859375 -17.691406 30.765625 -14.109375 L 26.53125 -14.109375 L 26.53125 -15.578125 C 26.457031 -19.535156 25.601562 -22.523438 23.96875 -24.546875 C 22.332031 -26.566406 19.953125 -27.578125 16.828125 -27.578125 C 13.546875 -27.578125 11.03125 -26.507812 9.28125 -24.375 C 7.539062 -22.25 6.671875 -19.210938 6.671875 -15.265625 C 6.671875 -11.421875 7.539062 -8.4375 9.28125 -6.3125 C 11.03125 -4.195312 13.507812 -3.140625 16.71875 -3.140625 C 18.90625 -3.140625 20.8125 -3.644531 22.4375 -4.65625 C 24.070312 -5.664062 25.359375 -7.117188 26.296875 -9.015625 L 30.171875 -7.515625 C 28.960938 -4.859375 27.1875 -2.800781 24.84375 -1.34375 C 22.5 0.113281 19.847656 0.84375 16.890625 0.84375 Z M 5.203125 -14.109375 L 5.203125 -17.59375 L 28.53125 -17.59375 L 28.53125 -14.109375 Z M 5.203125 -14.109375 "/></g></g></g><g fill="#ffffff" fill-opacity="1"><g transform="translate(444.476483, 58.90549)"><g><path d="M 26.015625 0 L 26.015625 -15.578125 C 26.015625 -17.273438 25.851562 -18.835938 25.53125 -20.265625 C 25.21875 -21.691406 24.707031 -22.9375 24 -24 C 23.289062 -25.0625 22.375 -25.882812 21.25 -26.46875 C 20.132812 -27.050781 18.773438 -27.34375 17.171875 -27.34375 C 15.691406 -27.34375 14.390625 -27.085938 13.265625 -26.578125 C 12.148438 -26.078125 11.207031 -25.347656 10.4375 -24.390625 C 9.675781 -23.441406 9.097656 -22.285156 8.703125 -20.921875 C 8.304688 -19.566406 8.109375 -18.023438 8.109375 -16.296875 L 5.171875 -16.9375 C 5.171875 -20.070312 5.71875 -22.703125 6.8125 -24.828125 C 7.90625 -26.960938 9.410156 -28.578125 11.328125 -29.671875 C 13.253906 -30.765625 15.460938 -31.3125 17.953125 -31.3125 C 19.785156 -31.3125 21.382812 -31.023438 22.75 -30.453125 C 24.113281 -29.890625 25.269531 -29.125 26.21875 -28.15625 C 27.175781 -27.195312 27.945312 -26.097656 28.53125 -24.859375 C 29.113281 -23.628906 29.535156 -22.320312 29.796875 -20.9375 C 30.066406 -19.550781 30.203125 -18.171875 30.203125 -16.796875 L 30.203125 0 Z M 3.9375 0 L 3.9375 -30.546875 L 7.6875 -30.546875 L 7.6875 -23.015625 L 8.109375 -23.015625 L 8.109375 0 Z M 3.9375 0 "/></g></g></g><g fill="#ffffff" fill-opacity="1"><g transform="translate(477.866107, 58.90549)"><g><path d="M 16.625 0.84375 C 13.550781 0.84375 10.945312 0.15625 8.8125 -1.21875 C 6.6875 -2.59375 5.070312 -4.488281 3.96875 -6.90625 C 2.863281 -9.332031 2.296875 -12.117188 2.265625 -15.265625 C 2.296875 -18.472656 2.878906 -21.285156 4.015625 -23.703125 C 5.148438 -26.128906 6.78125 -28.015625 8.90625 -29.359375 C 11.039062 -30.710938 13.625 -31.390625 16.65625 -31.390625 C 19.75 -31.390625 22.441406 -30.632812 24.734375 -29.125 C 27.023438 -27.613281 28.59375 -25.550781 29.4375 -22.9375 L 25.375 -21.640625 C 24.65625 -23.460938 23.515625 -24.878906 21.953125 -25.890625 C 20.398438 -26.898438 18.625 -27.40625 16.625 -27.40625 C 14.382812 -27.40625 12.53125 -26.890625 11.0625 -25.859375 C 9.59375 -24.835938 8.5 -23.410156 7.78125 -21.578125 C 7.0625 -19.742188 6.691406 -17.640625 6.671875 -15.265625 C 6.710938 -11.609375 7.5625 -8.671875 9.21875 -6.453125 C 10.875 -4.242188 13.34375 -3.140625 16.625 -3.140625 C 18.695312 -3.140625 20.460938 -3.613281 21.921875 -4.5625 C 23.390625 -5.519531 24.5 -6.910156 25.25 -8.734375 L 29.4375 -7.5 C 28.3125 -4.78125 26.65625 -2.707031 24.46875 -1.28125 C 22.28125 0.132812 19.664062 0.84375 16.625 0.84375 Z M 16.625 0.84375 "/></g></g></g><g fill="#ffffff" fill-opacity="1"><g transform="translate(508.315276, 58.90549)"><g><path d="M 16.890625 0.84375 C 13.910156 0.84375 11.328125 0.1875 9.140625 -1.125 C 6.960938 -2.445312 5.269531 -4.304688 4.0625 -6.703125 C 2.863281 -9.097656 2.265625 -11.90625 2.265625 -15.125 C 2.265625 -18.46875 2.859375 -21.351562 4.046875 -23.78125 C 5.234375 -26.21875 6.90625 -28.09375 9.0625 -29.40625 C 11.21875 -30.726562 13.769531 -31.390625 16.71875 -31.390625 C 19.726562 -31.390625 22.296875 -30.695312 24.421875 -29.3125 C 26.554688 -27.925781 28.171875 -25.941406 29.265625 -23.359375 C 30.359375 -20.773438 30.859375 -17.691406 30.765625 -14.109375 L 26.53125 -14.109375 L 26.53125 -15.578125 C 26.457031 -19.535156 25.601562 -22.523438 23.96875 -24.546875 C 22.332031 -26.566406 19.953125 -27.578125 16.828125 -27.578125 C 13.546875 -27.578125 11.03125 -26.507812 9.28125 -24.375 C 7.539062 -22.25 6.671875 -19.210938 6.671875 -15.265625 C 6.671875 -11.421875 7.539062 -8.4375 9.28125 -6.3125 C 11.03125 -4.195312 13.507812 -3.140625 16.71875 -3.140625 C 18.90625 -3.140625 20.8125 -3.644531 22.4375 -4.65625 C 24.070312 -5.664062 25.359375 -7.117188 26.296875 -9.015625 L 30.171875 -7.515625 C 28.960938 -4.859375 27.1875 -2.800781 24.84375 -1.34375 C 22.5 0.113281 19.847656 0.84375 16.890625 0.84375 Z M 5.203125 -14.109375 L 5.203125 -17.59375 L 28.53125 -17.59375 L 28.53125 -14.109375 Z M 5.203125 -14.109375 "/></g></g></g><g fill="#ffffff" fill-opacity="1"><g transform="translate(540.234526, 58.90549)"><g><path d="M 4.75 0 L 4.75 -4.84375 L 9.59375 -4.84375 L 9.59375 0 Z M 4.75 0 "/></g></g></g></g></g><path stroke-linecap="butt" transform="matrix(0.748919, -0.000935054, 0.000935054, 0.748919, 464.678191, 429.668143)" fill="none" stroke-linejoin="miter" d="M 0.00137331 0.500491 L 400.469366 0.499769 " stroke="#ffffff" stroke-width="1" stroke-opacity="1" stroke-miterlimit="4"/></svg>