<svg xmlns="http://www.w3.org/2000/svg" xmlns:xlink="http://www.w3.org/1999/xlink" width="1024" zoomAndPan="magnify" viewBox="0 0 768 767.999994" height="1024" preserveAspectRatio="xMidYMid meet" version="1.0"><defs><g/><clipPath id="aef75b1aba"><path d="M 243.066406 120.722656 L 525 120.722656 L 525 402.722656 L 243.066406 402.722656 Z M 243.066406 120.722656 " clip-rule="nonzero"/></clipPath><clipPath id="1c70b86d91"><rect x="0" width="432" y="0" height="148"/></clipPath><clipPath id="01cb38644e"><rect x="0" width="452" y="0" height="64"/></clipPath></defs><g clip-path="url(#aef75b1aba)"><path fill="#f6f4f1" d="M 383.996094 391.363281 C 314.378906 391.363281 257.382812 336.230469 254.453125 267.289062 L 278.410156 267.289062 C 279.707031 293.953125 290.8125 318.925781 310.09375 338.035156 C 330.332031 358.160156 356.824219 369.152344 384.898438 369.152344 C 385.292969 369.152344 385.6875 369.152344 386.027344 369.152344 C 444.425781 368.535156 491.722656 320.277344 491.441406 261.3125 C 490.652344 247.5 485.464844 212.382812 455.136719 184.816406 C 429.433594 161.421875 400.230469 156.6875 384.898438 155.898438 L 309.078125 155.898438 C 330.273438 140.847656 356.09375 131.996094 383.996094 131.996094 C 455.476562 131.9375 513.652344 190.117188 513.652344 261.652344 C 513.652344 333.1875 455.476562 391.363281 383.996094 391.363281 Z M 324.75 267.289062 L 350.398438 267.289062 C 365.675781 269.203125 378.359375 278.84375 383.488281 292.597656 C 388.28125 305.398438 384.617188 317.066406 381.910156 323.039062 C 351.523438 321.347656 327.117188 297.390625 324.75 267.289062 Z M 269.335938 201.164062 L 383.207031 201.222656 C 399.835938 200.941406 415.621094 207.421875 427.574219 219.261719 C 439.351562 230.929688 445.835938 246.320312 445.78125 262.554688 C 445.722656 279.296875 438.902344 294.460938 427.910156 305.453125 C 428.640625 301.28125 429.09375 297.054688 429.09375 292.714844 C 429.09375 253.703125 398.878906 222.023438 361.730469 222.023438 L 260.542969 222.023438 C 262.855469 214.75 265.839844 207.757812 269.335938 201.164062 Z M 257.5 233.183594 L 361.671875 233.183594 C 392.621094 233.183594 417.761719 259.847656 417.761719 292.65625 C 417.761719 300.886719 416.1875 308.78125 413.140625 316.21875 C 407.277344 319.320312 400.851562 321.40625 394.085938 322.421875 C 396.851562 314.191406 398.878906 301.957031 393.917969 288.652344 C 387.265625 270.839844 370.972656 258.382812 351.300781 256.070312 C 351.074219 256.070312 350.847656 256.015625 350.625 256.015625 L 254.453125 256.015625 C 254.792969 248.234375 255.808594 240.625 257.5 233.183594 Z M 295.324219 167.117188 L 384.558594 167.117188 C 398.148438 167.792969 424.414062 172.019531 447.527344 193.101562 C 474.8125 217.90625 479.433594 249.53125 480.167969 261.652344 C 480.390625 314.191406 438.113281 357.371094 385.855469 357.933594 C 360.601562 358.21875 336.304688 348.292969 317.984375 330.085938 C 300.847656 313.0625 290.925781 290.964844 289.6875 267.289062 L 313.53125 267.289062 C 315.957031 304.550781 346.902344 334.148438 384.730469 334.429688 C 384.898438 334.429688 385.066406 334.484375 385.234375 334.484375 C 385.464844 334.484375 385.628906 334.429688 385.800781 334.429688 C 424.976562 334.089844 456.886719 302.015625 456.996094 262.609375 C 457.054688 243.332031 449.445312 225.121094 435.464844 211.3125 C 421.371094 197.332031 402.65625 189.71875 383.09375 190.003906 L 275.988281 189.945312 C 281.570312 181.605469 288.050781 173.9375 295.324219 167.117188 Z M 383.996094 120.722656 C 347.859375 120.722656 314.882812 134.363281 289.96875 156.800781 C 289.515625 157.140625 289.066406 157.476562 288.726562 157.925781 C 278.015625 167.792969 268.828125 179.292969 261.558594 192.03125 C 261.21875 192.484375 260.9375 192.933594 260.710938 193.5 C 255.015625 203.699219 250.566406 214.695312 247.578125 226.308594 C 247.578125 226.363281 247.519531 226.417969 247.519531 226.476562 C 244.589844 237.75 243.066406 249.53125 243.066406 261.652344 C 243.066406 339.332031 306.261719 402.582031 383.996094 402.582031 C 461.730469 402.582031 524.925781 339.332031 524.925781 261.652344 C 524.925781 183.972656 461.675781 120.722656 383.996094 120.722656 " fill-opacity="1" fill-rule="nonzero"/></g><g transform="matrix(1, 0, 0, 1, 168, 407)"><g clip-path="url(#1c70b86d91)"><g fill="#ffffff" fill-opacity="1"><g transform="translate(0.948237, 114.935876)"><g><path d="M 8.640625 0 L 8.640625 -77.703125 L 21.640625 -77.703125 L 21.640625 -12.1875 L 55.953125 -12.1875 L 55.953125 0 Z M 8.640625 0 "/></g></g></g><g fill="#ffffff" fill-opacity="1"><g transform="translate(58.51864, 114.935876)"><g><path d="M 8.640625 -67.125 L 8.640625 -79.046875 L 21.640625 -79.046875 L 21.640625 -67.125 Z M 8.640625 0 L 8.640625 -58.28125 L 21.640625 -58.28125 L 21.640625 0 Z M 8.640625 0 "/></g></g></g><g fill="#ffffff" fill-opacity="1"><g transform="translate(88.787614, 114.935876)"><g><path d="M 12.625 0 L 12.625 -59.1875 C 12.625 -60.664062 12.675781 -62.296875 12.78125 -64.078125 C 12.894531 -65.859375 13.203125 -67.628906 13.703125 -69.390625 C 14.210938 -71.148438 15.128906 -72.753906 16.453125 -74.203125 C 18.109375 -76.035156 19.898438 -77.300781 21.828125 -78 C 23.753906 -78.695312 25.648438 -79.09375 27.515625 -79.1875 C 29.390625 -79.28125 31.03125 -79.328125 32.4375 -79.328125 L 39.71875 -79.328125 L 39.71875 -68.75 L 32.96875 -68.75 C 30.488281 -68.75 28.644531 -68.125 27.4375 -66.875 C 26.226562 -65.632812 25.625 -64.007812 25.625 -62 L 25.625 0 Z M 3.234375 -48.078125 L 3.234375 -58.28125 L 39.71875 -58.28125 L 39.71875 -48.078125 Z M 3.234375 -48.078125 "/></g></g></g><g fill="#ffffff" fill-opacity="1"><g transform="translate(127.419411, 114.935876)"><g><path d="M 34.046875 1.625 C 28.148438 1.625 22.96875 0.347656 18.5 -2.203125 C 14.039062 -4.765625 10.5625 -8.3125 8.0625 -12.84375 C 5.5625 -17.375 4.3125 -22.585938 4.3125 -28.484375 C 4.3125 -34.859375 5.535156 -40.390625 7.984375 -45.078125 C 10.429688 -49.773438 13.832031 -53.414062 18.1875 -56 C 22.539062 -58.59375 27.578125 -59.890625 33.296875 -59.890625 C 39.335938 -59.890625 44.472656 -58.476562 48.703125 -55.65625 C 52.929688 -52.832031 56.066406 -48.847656 58.109375 -43.703125 C 60.160156 -38.554688 60.9375 -32.5 60.4375 -25.53125 L 47.546875 -25.53125 L 47.546875 -30.265625 C 47.503906 -36.597656 46.382812 -41.222656 44.1875 -44.140625 C 42 -47.054688 38.546875 -48.515625 33.828125 -48.515625 C 28.503906 -48.515625 24.546875 -46.867188 21.953125 -43.578125 C 19.367188 -40.285156 18.078125 -35.472656 18.078125 -29.140625 C 18.078125 -23.242188 19.367188 -18.675781 21.953125 -15.4375 C 24.546875 -12.195312 28.328125 -10.578125 33.296875 -10.578125 C 36.492188 -10.578125 39.253906 -11.285156 41.578125 -12.703125 C 43.898438 -14.128906 45.691406 -16.191406 46.953125 -18.890625 L 59.78125 -15 C 57.550781 -9.75 54.109375 -5.664062 49.453125 -2.75 C 44.796875 0.164062 39.660156 1.625 34.046875 1.625 Z M 13.96875 -25.53125 L 13.96875 -35.34375 L 54.0625 -35.34375 L 54.0625 -25.53125 Z M 13.96875 -25.53125 "/></g></g></g><g fill="#ffffff" fill-opacity="1"><g transform="translate(192.381705, 114.935876)"><g/></g></g><g fill="#ffffff" fill-opacity="1"><g transform="translate(213.963867, 114.935876)"><g><path d="M 40.421875 1.625 C 32.648438 1.625 25.992188 -0.0703125 20.453125 -3.46875 C 14.910156 -6.875 10.65625 -11.613281 7.6875 -17.6875 C 4.71875 -23.769531 3.234375 -30.828125 3.234375 -38.859375 C 3.234375 -46.878906 4.71875 -53.925781 7.6875 -60 C 10.65625 -66.082031 14.910156 -70.820312 20.453125 -74.21875 C 25.992188 -77.625 32.648438 -79.328125 40.421875 -79.328125 C 49.378906 -79.328125 56.84375 -77.085938 62.8125 -72.609375 C 68.78125 -68.128906 72.972656 -62.09375 75.390625 -54.5 L 62.265625 -50.890625 C 60.753906 -55.960938 58.179688 -59.925781 54.546875 -62.78125 C 50.921875 -65.644531 46.210938 -67.078125 40.421875 -67.078125 C 35.203125 -67.078125 30.851562 -65.90625 27.375 -63.5625 C 23.90625 -61.226562 21.296875 -57.945312 19.546875 -53.71875 C 17.804688 -49.488281 16.921875 -44.535156 16.890625 -38.859375 C 16.890625 -33.171875 17.757812 -28.210938 19.5 -23.984375 C 21.25 -19.753906 23.867188 -16.46875 27.359375 -14.125 C 30.847656 -11.789062 35.203125 -10.625 40.421875 -10.625 C 46.210938 -10.625 50.921875 -12.0625 54.546875 -14.9375 C 58.179688 -17.820312 60.753906 -21.78125 62.265625 -26.8125 L 75.390625 -23.203125 C 72.972656 -15.609375 68.78125 -9.570312 62.8125 -5.09375 C 56.84375 -0.613281 49.378906 1.625 40.421875 1.625 Z M 40.421875 1.625 "/></g></g></g><g fill="#ffffff" fill-opacity="1"><g transform="translate(293.655974, 114.935876)"><g><path d="M 7.546875 0 L 7.546875 -77.703125 L 54.34375 -77.703125 L 54.34375 -64.703125 L 20.5625 -64.703125 L 20.5625 -45.328125 L 47.859375 -45.328125 L 47.859375 -32.375 L 20.5625 -32.375 L 20.5625 0 Z M 7.546875 0 "/></g></g></g><g fill="#ffffff" fill-opacity="1"><g transform="translate(350.147305, 114.935876)"><g><path d="M 40.421875 1.625 C 32.648438 1.625 25.992188 -0.0703125 20.453125 -3.46875 C 14.910156 -6.875 10.65625 -11.613281 7.6875 -17.6875 C 4.71875 -23.769531 3.234375 -30.828125 3.234375 -38.859375 C 3.234375 -46.878906 4.71875 -53.925781 7.6875 -60 C 10.65625 -66.082031 14.910156 -70.820312 20.453125 -74.21875 C 25.992188 -77.625 32.648438 -79.328125 40.421875 -79.328125 C 48.191406 -79.328125 54.851562 -77.625 60.40625 -74.21875 C 65.96875 -70.820312 70.234375 -66.082031 73.203125 -60 C 76.171875 -53.925781 77.65625 -46.878906 77.65625 -38.859375 C 77.65625 -30.828125 76.171875 -23.769531 73.203125 -17.6875 C 70.234375 -11.613281 65.96875 -6.875 60.40625 -3.46875 C 54.851562 -0.0703125 48.191406 1.625 40.421875 1.625 Z M 40.421875 -10.625 C 45.628906 -10.59375 49.96875 -11.742188 53.4375 -14.078125 C 56.914062 -16.421875 59.523438 -19.710938 61.265625 -23.953125 C 63.015625 -28.203125 63.890625 -33.171875 63.890625 -38.859375 C 63.890625 -44.535156 63.015625 -49.46875 61.265625 -53.65625 C 59.523438 -57.851562 56.914062 -61.117188 53.4375 -63.453125 C 49.96875 -65.796875 45.628906 -67.003906 40.421875 -67.078125 C 35.203125 -67.109375 30.863281 -65.953125 27.40625 -63.609375 C 23.957031 -61.273438 21.359375 -57.984375 19.609375 -53.734375 C 17.867188 -49.492188 17 -44.535156 17 -38.859375 C 17 -33.171875 17.859375 -28.226562 19.578125 -24.03125 C 21.304688 -19.84375 23.90625 -16.578125 27.375 -14.234375 C 30.851562 -11.898438 35.203125 -10.695312 40.421875 -10.625 Z M 40.421875 -10.625 "/></g></g></g></g></g><g transform="matrix(1, 0, 0, 1, 158, 555)"><g clip-path="url(#01cb38644e)"><g fill="#ffffff" fill-opacity="1"><g transform="translate(0.998768, 49.489261)"><g><path d="M 3.21875 0 L 3.21875 -33.15625 L 13.28125 -33.15625 C 13.632812 -33.15625 14.238281 -33.144531 15.09375 -33.125 C 15.945312 -33.113281 16.765625 -33.054688 17.546875 -32.953125 C 20.054688 -32.597656 22.15625 -31.660156 23.84375 -30.140625 C 25.539062 -28.617188 26.8125 -26.679688 27.65625 -24.328125 C 28.5 -21.984375 28.921875 -19.398438 28.921875 -16.578125 C 28.921875 -13.753906 28.5 -11.164062 27.65625 -8.8125 C 26.8125 -6.46875 25.539062 -4.535156 23.84375 -3.015625 C 22.15625 -1.492188 20.054688 -0.554688 17.546875 -0.203125 C 16.773438 -0.109375 15.953125 -0.0507812 15.078125 -0.03125 C 14.203125 -0.0078125 13.601562 0 13.28125 0 Z M 6.71875 -3.25 L 13.28125 -3.25 C 13.914062 -3.25 14.597656 -3.265625 15.328125 -3.296875 C 16.054688 -3.335938 16.679688 -3.410156 17.203125 -3.515625 C 19.128906 -3.859375 20.6875 -4.644531 21.875 -5.875 C 23.070312 -7.101562 23.945312 -8.640625 24.5 -10.484375 C 25.050781 -12.335938 25.328125 -14.367188 25.328125 -16.578125 C 25.328125 -18.804688 25.050781 -20.847656 24.5 -22.703125 C 23.945312 -24.554688 23.070312 -26.085938 21.875 -27.296875 C 20.675781 -28.515625 19.117188 -29.289062 17.203125 -29.625 C 16.679688 -29.738281 16.046875 -29.8125 15.296875 -29.84375 C 14.554688 -29.882812 13.882812 -29.90625 13.28125 -29.90625 L 6.71875 -29.90625 Z M 6.71875 -3.25 "/></g></g></g><g fill="#ffffff" fill-opacity="1"><g transform="translate(31.91563, 49.489261)"><g><path d="M 13.75 0.6875 C 11.320312 0.6875 9.21875 0.148438 7.4375 -0.921875 C 5.664062 -1.992188 4.289062 -3.503906 3.3125 -5.453125 C 2.332031 -7.398438 1.84375 -9.6875 1.84375 -12.3125 C 1.84375 -15.03125 2.328125 -17.378906 3.296875 -19.359375 C 4.265625 -21.335938 5.625 -22.863281 7.375 -23.9375 C 9.132812 -25.019531 11.210938 -25.5625 13.609375 -25.5625 C 16.066406 -25.5625 18.160156 -24.992188 19.890625 -23.859375 C 21.628906 -22.734375 22.941406 -21.117188 23.828125 -19.015625 C 24.722656 -16.910156 25.128906 -14.398438 25.046875 -11.484375 L 21.59375 -11.484375 L 21.59375 -12.6875 C 21.53125 -15.90625 20.832031 -18.335938 19.5 -19.984375 C 18.175781 -21.628906 16.242188 -22.453125 13.703125 -22.453125 C 11.023438 -22.453125 8.976562 -21.582031 7.5625 -19.84375 C 6.144531 -18.113281 5.4375 -15.644531 5.4375 -12.4375 C 5.4375 -9.300781 6.144531 -6.867188 7.5625 -5.140625 C 8.976562 -3.421875 10.992188 -2.5625 13.609375 -2.5625 C 15.390625 -2.5625 16.941406 -2.96875 18.265625 -3.78125 C 19.597656 -4.601562 20.644531 -5.789062 21.40625 -7.34375 L 24.5625 -6.125 C 23.582031 -3.957031 22.132812 -2.28125 20.21875 -1.09375 C 18.3125 0.09375 16.15625 0.6875 13.75 0.6875 Z M 4.234375 -11.484375 L 4.234375 -14.328125 L 23.234375 -14.328125 L 23.234375 -11.484375 Z M 4.234375 -11.484375 "/></g></g></g><g fill="#ffffff" fill-opacity="1"><g transform="translate(58.826884, 49.489261)"><g><path d="M 13.53125 0.6875 C 11.03125 0.6875 8.910156 0.128906 7.171875 -0.984375 C 5.441406 -2.109375 4.128906 -3.65625 3.234375 -5.625 C 2.335938 -7.601562 1.875 -9.875 1.84375 -12.4375 C 1.875 -15.039062 2.347656 -17.328125 3.265625 -19.296875 C 4.191406 -21.273438 5.519531 -22.8125 7.25 -23.90625 C 8.988281 -25.007812 11.09375 -25.5625 13.5625 -25.5625 C 16.082031 -25.5625 18.273438 -24.945312 20.140625 -23.71875 C 22.003906 -22.488281 23.28125 -20.804688 23.96875 -18.671875 L 20.65625 -17.609375 C 20.070312 -19.097656 19.144531 -20.253906 17.875 -21.078125 C 16.613281 -21.898438 15.164062 -22.3125 13.53125 -22.3125 C 11.707031 -22.3125 10.195312 -21.890625 9 -21.046875 C 7.800781 -20.210938 6.910156 -19.050781 6.328125 -17.5625 C 5.742188 -16.070312 5.445312 -14.363281 5.4375 -12.4375 C 5.46875 -9.457031 6.15625 -7.066406 7.5 -5.265625 C 8.851562 -3.460938 10.863281 -2.5625 13.53125 -2.5625 C 15.21875 -2.5625 16.65625 -2.945312 17.84375 -3.71875 C 19.039062 -4.488281 19.945312 -5.617188 20.5625 -7.109375 L 23.96875 -6.09375 C 23.039062 -3.882812 21.6875 -2.203125 19.90625 -1.046875 C 18.132812 0.109375 16.007812 0.6875 13.53125 0.6875 Z M 13.53125 0.6875 "/></g></g></g><g fill="#ffffff" fill-opacity="1"><g transform="translate(83.620204, 49.489261)"><g><path d="M 3.6875 -29.578125 L 3.6875 -33.390625 L 7.0625 -33.390625 L 7.0625 -29.578125 Z M 3.6875 0 L 3.6875 -24.859375 L 7.0625 -24.859375 L 7.0625 0 Z M 3.6875 0 "/></g></g></g><g fill="#ffffff" fill-opacity="1"><g transform="translate(94.370891, 49.489261)"><g><path d="M 12.5 0.671875 C 9.582031 0.671875 7.179688 0.0390625 5.296875 -1.21875 C 3.421875 -2.476562 2.269531 -4.226562 1.84375 -6.46875 L 5.296875 -7.046875 C 5.660156 -5.628906 6.5 -4.503906 7.8125 -3.671875 C 9.125 -2.835938 10.75 -2.421875 12.6875 -2.421875 C 14.570312 -2.421875 16.054688 -2.8125 17.140625 -3.59375 C 18.234375 -4.382812 18.78125 -5.46875 18.78125 -6.84375 C 18.78125 -7.601562 18.609375 -8.222656 18.265625 -8.703125 C 17.921875 -9.191406 17.21875 -9.644531 16.15625 -10.0625 C 15.101562 -10.476562 13.523438 -10.96875 11.421875 -11.53125 C 9.160156 -12.144531 7.394531 -12.757812 6.125 -13.375 C 4.851562 -13.988281 3.945312 -14.695312 3.40625 -15.5 C 2.875 -16.3125 2.609375 -17.300781 2.609375 -18.46875 C 2.609375 -19.875 3.003906 -21.109375 3.796875 -22.171875 C 4.597656 -23.242188 5.703125 -24.078125 7.109375 -24.671875 C 8.523438 -25.265625 10.171875 -25.5625 12.046875 -25.5625 C 13.910156 -25.5625 15.582031 -25.253906 17.0625 -24.640625 C 18.550781 -24.035156 19.75 -23.1875 20.65625 -22.09375 C 21.5625 -21.007812 22.097656 -19.742188 22.265625 -18.296875 L 18.8125 -17.6875 C 18.582031 -19.144531 17.851562 -20.296875 16.625 -21.140625 C 15.40625 -21.992188 13.863281 -22.4375 12 -22.46875 C 10.226562 -22.519531 8.789062 -22.1875 7.6875 -21.46875 C 6.582031 -20.757812 6.03125 -19.8125 6.03125 -18.625 C 6.03125 -17.96875 6.226562 -17.40625 6.625 -16.9375 C 7.03125 -16.46875 7.757812 -16.023438 8.8125 -15.609375 C 9.863281 -15.191406 11.363281 -14.738281 13.3125 -14.25 C 15.59375 -13.664062 17.382812 -13.050781 18.6875 -12.40625 C 20 -11.757812 20.929688 -11 21.484375 -10.125 C 22.035156 -9.25 22.3125 -8.171875 22.3125 -6.890625 C 22.3125 -4.535156 21.4375 -2.6875 19.6875 -1.34375 C 17.945312 0 15.550781 0.671875 12.5 0.671875 Z M 12.5 0.671875 "/></g></g></g><g fill="#ffffff" fill-opacity="1"><g transform="translate(118.542676, 49.489261)"><g><path d="M 3.6875 -29.578125 L 3.6875 -33.390625 L 7.0625 -33.390625 L 7.0625 -29.578125 Z M 3.6875 0 L 3.6875 -24.859375 L 7.0625 -24.859375 L 7.0625 0 Z M 3.6875 0 "/></g></g></g><g fill="#ffffff" fill-opacity="1"><g transform="translate(129.293363, 49.489261)"><g><path d="M 13.609375 0.6875 C 11.140625 0.6875 9.03125 0.128906 7.28125 -0.984375 C 5.53125 -2.109375 4.1875 -3.660156 3.25 -5.640625 C 2.3125 -7.617188 1.84375 -9.890625 1.84375 -12.453125 C 1.84375 -15.066406 2.316406 -17.351562 3.265625 -19.3125 C 4.222656 -21.28125 5.578125 -22.8125 7.328125 -23.90625 C 9.085938 -25.007812 11.179688 -25.5625 13.609375 -25.5625 C 16.097656 -25.5625 18.21875 -25.003906 19.96875 -23.890625 C 21.726562 -22.773438 23.070312 -21.226562 24 -19.25 C 24.925781 -17.28125 25.390625 -15.015625 25.390625 -12.453125 C 25.390625 -9.847656 24.921875 -7.554688 23.984375 -5.578125 C 23.046875 -3.609375 21.695312 -2.070312 19.9375 -0.96875 C 18.175781 0.132812 16.066406 0.6875 13.609375 0.6875 Z M 13.609375 -2.5625 C 16.367188 -2.5625 18.421875 -3.476562 19.765625 -5.3125 C 21.117188 -7.144531 21.796875 -9.523438 21.796875 -12.453125 C 21.796875 -15.460938 21.117188 -17.859375 19.765625 -19.640625 C 18.410156 -21.421875 16.359375 -22.3125 13.609375 -22.3125 C 11.753906 -22.3125 10.222656 -21.890625 9.015625 -21.046875 C 7.804688 -20.210938 6.90625 -19.054688 6.3125 -17.578125 C 5.726562 -16.097656 5.4375 -14.390625 5.4375 -12.453125 C 5.4375 -9.460938 6.125 -7.066406 7.5 -5.265625 C 8.882812 -3.460938 10.921875 -2.5625 13.609375 -2.5625 Z M 13.609375 -2.5625 "/></g></g></g><g fill="#ffffff" fill-opacity="1"><g transform="translate(156.52691, 49.489261)"><g><path d="M 21.1875 0 L 21.1875 -12.6875 C 21.1875 -14.070312 21.054688 -15.34375 20.796875 -16.5 C 20.535156 -17.65625 20.113281 -18.664062 19.53125 -19.53125 C 18.957031 -20.40625 18.210938 -21.078125 17.296875 -21.546875 C 16.390625 -22.023438 15.28125 -22.265625 13.96875 -22.265625 C 12.769531 -22.265625 11.710938 -22.054688 10.796875 -21.640625 C 9.890625 -21.222656 9.125 -20.625 8.5 -19.84375 C 7.882812 -19.070312 7.414062 -18.132812 7.09375 -17.03125 C 6.769531 -15.925781 6.609375 -14.671875 6.609375 -13.265625 L 4.21875 -13.796875 C 4.21875 -16.335938 4.660156 -18.472656 5.546875 -20.203125 C 6.441406 -21.941406 7.671875 -23.253906 9.234375 -24.140625 C 10.796875 -25.035156 12.59375 -25.484375 14.625 -25.484375 C 16.113281 -25.484375 17.410156 -25.253906 18.515625 -24.796875 C 19.628906 -24.335938 20.570312 -23.710938 21.34375 -22.921875 C 22.125 -22.140625 22.75 -21.242188 23.21875 -20.234375 C 23.695312 -19.234375 24.046875 -18.171875 24.265625 -17.046875 C 24.484375 -15.921875 24.59375 -14.796875 24.59375 -13.671875 L 24.59375 0 Z M 3.203125 0 L 3.203125 -24.859375 L 6.265625 -24.859375 L 6.265625 -18.734375 L 6.609375 -18.734375 L 6.609375 0 Z M 3.203125 0 "/></g></g></g><g fill="#ffffff" fill-opacity="1"><g transform="translate(183.875564, 49.489261)"><g/></g></g><g fill="#ffffff" fill-opacity="1"><g transform="translate(193.083876, 49.489261)"><g><path d="M 3.6875 0 L 3.6875 -33.15625 L 7.0625 -33.15625 L 7.0625 0 Z M 3.6875 0 "/></g></g></g><g fill="#ffffff" fill-opacity="1"><g transform="translate(203.834562, 49.489261)"><g><path d="M 21.1875 0 L 21.1875 -12.6875 C 21.1875 -14.070312 21.054688 -15.34375 20.796875 -16.5 C 20.535156 -17.65625 20.113281 -18.664062 19.53125 -19.53125 C 18.957031 -20.40625 18.210938 -21.078125 17.296875 -21.546875 C 16.390625 -22.023438 15.28125 -22.265625 13.96875 -22.265625 C 12.769531 -22.265625 11.710938 -22.054688 10.796875 -21.640625 C 9.890625 -21.222656 9.125 -20.625 8.5 -19.84375 C 7.882812 -19.070312 7.414062 -18.132812 7.09375 -17.03125 C 6.769531 -15.925781 6.609375 -14.671875 6.609375 -13.265625 L 4.21875 -13.796875 C 4.21875 -16.335938 4.660156 -18.472656 5.546875 -20.203125 C 6.441406 -21.941406 7.671875 -23.253906 9.234375 -24.140625 C 10.796875 -25.035156 12.59375 -25.484375 14.625 -25.484375 C 16.113281 -25.484375 17.410156 -25.253906 18.515625 -24.796875 C 19.628906 -24.335938 20.570312 -23.710938 21.34375 -22.921875 C 22.125 -22.140625 22.75 -21.242188 23.21875 -20.234375 C 23.695312 -19.234375 24.046875 -18.171875 24.265625 -17.046875 C 24.484375 -15.921875 24.59375 -14.796875 24.59375 -13.671875 L 24.59375 0 Z M 3.203125 0 L 3.203125 -24.859375 L 6.265625 -24.859375 L 6.265625 -18.734375 L 6.609375 -18.734375 L 6.609375 0 Z M 3.203125 0 "/></g></g></g><g fill="#ffffff" fill-opacity="1"><g transform="translate(231.183197, 49.489261)"><g><path d="M 16.765625 0 C 15.367188 0.289062 13.988281 0.40625 12.625 0.34375 C 11.269531 0.28125 10.054688 -0.0078125 8.984375 -0.53125 C 7.921875 -1.050781 7.113281 -1.863281 6.5625 -2.96875 C 6.113281 -3.882812 5.867188 -4.816406 5.828125 -5.765625 C 5.796875 -6.710938 5.78125 -7.789062 5.78125 -9 L 5.78125 -31.765625 L 9.140625 -31.765625 L 9.140625 -9.140625 C 9.140625 -8.097656 9.148438 -7.226562 9.171875 -6.53125 C 9.191406 -5.832031 9.347656 -5.210938 9.640625 -4.671875 C 10.191406 -3.640625 11.070312 -3.023438 12.28125 -2.828125 C 13.488281 -2.628906 14.984375 -2.675781 16.765625 -2.96875 Z M 0.453125 -21.96875 L 0.453125 -24.859375 L 16.765625 -24.859375 L 16.765625 -21.96875 Z M 0.453125 -21.96875 "/></g></g></g><g fill="#ffffff" fill-opacity="1"><g transform="translate(248.701958, 49.489261)"><g><path d="M 13.75 0.6875 C 11.320312 0.6875 9.21875 0.148438 7.4375 -0.921875 C 5.664062 -1.992188 4.289062 -3.503906 3.3125 -5.453125 C 2.332031 -7.398438 1.84375 -9.6875 1.84375 -12.3125 C 1.84375 -15.03125 2.328125 -17.378906 3.296875 -19.359375 C 4.265625 -21.335938 5.625 -22.863281 7.375 -23.9375 C 9.132812 -25.019531 11.210938 -25.5625 13.609375 -25.5625 C 16.066406 -25.5625 18.160156 -24.992188 19.890625 -23.859375 C 21.628906 -22.734375 22.941406 -21.117188 23.828125 -19.015625 C 24.722656 -16.910156 25.128906 -14.398438 25.046875 -11.484375 L 21.59375 -11.484375 L 21.59375 -12.6875 C 21.53125 -15.90625 20.832031 -18.335938 19.5 -19.984375 C 18.175781 -21.628906 16.242188 -22.453125 13.703125 -22.453125 C 11.023438 -22.453125 8.976562 -21.582031 7.5625 -19.84375 C 6.144531 -18.113281 5.4375 -15.644531 5.4375 -12.4375 C 5.4375 -9.300781 6.144531 -6.867188 7.5625 -5.140625 C 8.976562 -3.421875 10.992188 -2.5625 13.609375 -2.5625 C 15.390625 -2.5625 16.941406 -2.96875 18.265625 -3.78125 C 19.597656 -4.601562 20.644531 -5.789062 21.40625 -7.34375 L 24.5625 -6.125 C 23.582031 -3.957031 22.132812 -2.28125 20.21875 -1.09375 C 18.3125 0.09375 16.15625 0.6875 13.75 0.6875 Z M 4.234375 -11.484375 L 4.234375 -14.328125 L 23.234375 -14.328125 L 23.234375 -11.484375 Z M 4.234375 -11.484375 "/></g></g></g><g fill="#ffffff" fill-opacity="1"><g transform="translate(275.613231, 49.489261)"><g><path d="M 3.6875 0 L 3.6875 -33.84375 L 7.0625 -33.84375 L 7.0625 0 Z M 3.6875 0 "/></g></g></g><g fill="#ffffff" fill-opacity="1"><g transform="translate(286.363917, 49.489261)"><g><path d="M 3.6875 0 L 3.6875 -33.84375 L 7.0625 -33.84375 L 7.0625 0 Z M 3.6875 0 "/></g></g></g><g fill="#ffffff" fill-opacity="1"><g transform="translate(297.114604, 49.489261)"><g><path d="M 3.6875 -29.578125 L 3.6875 -33.390625 L 7.0625 -33.390625 L 7.0625 -29.578125 Z M 3.6875 0 L 3.6875 -24.859375 L 7.0625 -24.859375 L 7.0625 0 Z M 3.6875 0 "/></g></g></g><g fill="#ffffff" fill-opacity="1"><g transform="translate(307.865291, 49.489261)"><g><path d="M 13.09375 11.734375 C 11.820312 11.734375 10.566406 11.546875 9.328125 11.171875 C 8.097656 10.796875 6.957031 10.207031 5.90625 9.40625 C 4.863281 8.601562 3.992188 7.554688 3.296875 6.265625 L 6.359375 4.5625 C 7.046875 5.9375 8.015625 6.925781 9.265625 7.53125 C 10.515625 8.144531 11.789062 8.453125 13.09375 8.453125 C 14.894531 8.453125 16.347656 8.117188 17.453125 7.453125 C 18.566406 6.785156 19.378906 5.796875 19.890625 4.484375 C 20.398438 3.179688 20.644531 1.554688 20.625 -0.390625 L 20.625 -7.015625 L 21.015625 -7.015625 L 21.015625 -24.859375 L 24.03125 -24.859375 L 24.03125 -0.34375 C 24.03125 0.363281 24.007812 1.039062 23.96875 1.6875 C 23.9375 2.34375 23.867188 2.984375 23.765625 3.609375 C 23.472656 5.472656 22.867188 7 21.953125 8.1875 C 21.035156 9.382812 19.835938 10.273438 18.359375 10.859375 C 16.878906 11.441406 15.125 11.734375 13.09375 11.734375 Z M 12.875 0.6875 C 10.550781 0.6875 8.566406 0.109375 6.921875 -1.046875 C 5.285156 -2.203125 4.03125 -3.769531 3.15625 -5.75 C 2.28125 -7.726562 1.84375 -9.960938 1.84375 -12.453125 C 1.84375 -14.921875 2.273438 -17.144531 3.140625 -19.125 C 4.003906 -21.113281 5.25 -22.679688 6.875 -23.828125 C 8.507812 -24.984375 10.460938 -25.5625 12.734375 -25.5625 C 15.066406 -25.5625 17.03125 -24.992188 18.625 -23.859375 C 20.21875 -22.722656 21.425781 -21.164062 22.25 -19.1875 C 23.070312 -17.21875 23.484375 -14.972656 23.484375 -12.453125 C 23.484375 -9.984375 23.078125 -7.753906 22.265625 -5.765625 C 21.453125 -3.773438 20.253906 -2.203125 18.671875 -1.046875 C 17.085938 0.109375 15.15625 0.6875 12.875 0.6875 Z M 13.21875 -2.46875 C 14.976562 -2.46875 16.429688 -2.894531 17.578125 -3.75 C 18.734375 -4.613281 19.59375 -5.800781 20.15625 -7.3125 C 20.726562 -8.820312 21.015625 -10.535156 21.015625 -12.453125 C 21.015625 -14.398438 20.726562 -16.125 20.15625 -17.625 C 19.59375 -19.125 18.738281 -20.296875 17.59375 -21.140625 C 16.457031 -21.984375 15.019531 -22.40625 13.28125 -22.40625 C 11.5 -22.40625 10.023438 -21.96875 8.859375 -21.09375 C 7.691406 -20.21875 6.828125 -19.023438 6.265625 -17.515625 C 5.710938 -16.015625 5.4375 -14.328125 5.4375 -12.453125 C 5.4375 -10.566406 5.722656 -8.867188 6.296875 -7.359375 C 6.867188 -5.847656 7.726562 -4.65625 8.875 -3.78125 C 10.03125 -2.90625 11.476562 -2.46875 13.21875 -2.46875 Z M 13.21875 -2.46875 "/></g></g></g><g fill="#ffffff" fill-opacity="1"><g transform="translate(335.121863, 49.489261)"><g><path d="M 13.75 0.6875 C 11.320312 0.6875 9.21875 0.148438 7.4375 -0.921875 C 5.664062 -1.992188 4.289062 -3.503906 3.3125 -5.453125 C 2.332031 -7.398438 1.84375 -9.6875 1.84375 -12.3125 C 1.84375 -15.03125 2.328125 -17.378906 3.296875 -19.359375 C 4.265625 -21.335938 5.625 -22.863281 7.375 -23.9375 C 9.132812 -25.019531 11.210938 -25.5625 13.609375 -25.5625 C 16.066406 -25.5625 18.160156 -24.992188 19.890625 -23.859375 C 21.628906 -22.734375 22.941406 -21.117188 23.828125 -19.015625 C 24.722656 -16.910156 25.128906 -14.398438 25.046875 -11.484375 L 21.59375 -11.484375 L 21.59375 -12.6875 C 21.53125 -15.90625 20.832031 -18.335938 19.5 -19.984375 C 18.175781 -21.628906 16.242188 -22.453125 13.703125 -22.453125 C 11.023438 -22.453125 8.976562 -21.582031 7.5625 -19.84375 C 6.144531 -18.113281 5.4375 -15.644531 5.4375 -12.4375 C 5.4375 -9.300781 6.144531 -6.867188 7.5625 -5.140625 C 8.976562 -3.421875 10.992188 -2.5625 13.609375 -2.5625 C 15.390625 -2.5625 16.941406 -2.96875 18.265625 -3.78125 C 19.597656 -4.601562 20.644531 -5.789062 21.40625 -7.34375 L 24.5625 -6.125 C 23.582031 -3.957031 22.132812 -2.28125 20.21875 -1.09375 C 18.3125 0.09375 16.15625 0.6875 13.75 0.6875 Z M 4.234375 -11.484375 L 4.234375 -14.328125 L 23.234375 -14.328125 L 23.234375 -11.484375 Z M 4.234375 -11.484375 "/></g></g></g><g fill="#ffffff" fill-opacity="1"><g transform="translate(361.342461, 49.489261)"><g><path d="M 21.1875 0 L 21.1875 -12.6875 C 21.1875 -14.070312 21.054688 -15.34375 20.796875 -16.5 C 20.535156 -17.65625 20.113281 -18.664062 19.53125 -19.53125 C 18.957031 -20.40625 18.210938 -21.078125 17.296875 -21.546875 C 16.390625 -22.023438 15.28125 -22.265625 13.96875 -22.265625 C 12.769531 -22.265625 11.710938 -22.054688 10.796875 -21.640625 C 9.890625 -21.222656 9.125 -20.625 8.5 -19.84375 C 7.882812 -19.070312 7.414062 -18.132812 7.09375 -17.03125 C 6.769531 -15.925781 6.609375 -14.671875 6.609375 -13.265625 L 4.21875 -13.796875 C 4.21875 -16.335938 4.660156 -18.472656 5.546875 -20.203125 C 6.441406 -21.941406 7.671875 -23.253906 9.234375 -24.140625 C 10.796875 -25.035156 12.59375 -25.484375 14.625 -25.484375 C 16.113281 -25.484375 17.410156 -25.253906 18.515625 -24.796875 C 19.628906 -24.335938 20.570312 -23.710938 21.34375 -22.921875 C 22.125 -22.140625 22.75 -21.242188 23.21875 -20.234375 C 23.695312 -19.234375 24.046875 -18.171875 24.265625 -17.046875 C 24.484375 -15.921875 24.59375 -14.796875 24.59375 -13.671875 L 24.59375 0 Z M 3.203125 0 L 3.203125 -24.859375 L 6.265625 -24.859375 L 6.265625 -18.734375 L 6.609375 -18.734375 L 6.609375 0 Z M 3.203125 0 "/></g></g></g><g fill="#ffffff" fill-opacity="1"><g transform="translate(388.529959, 49.489261)"><g><path d="M 13.53125 0.6875 C 11.03125 0.6875 8.910156 0.128906 7.171875 -0.984375 C 5.441406 -2.109375 4.128906 -3.65625 3.234375 -5.625 C 2.335938 -7.601562 1.875 -9.875 1.84375 -12.4375 C 1.875 -15.039062 2.347656 -17.328125 3.265625 -19.296875 C 4.191406 -21.273438 5.519531 -22.8125 7.25 -23.90625 C 8.988281 -25.007812 11.09375 -25.5625 13.5625 -25.5625 C 16.082031 -25.5625 18.273438 -24.945312 20.140625 -23.71875 C 22.003906 -22.488281 23.28125 -20.804688 23.96875 -18.671875 L 20.65625 -17.609375 C 20.070312 -19.097656 19.144531 -20.253906 17.875 -21.078125 C 16.613281 -21.898438 15.164062 -22.3125 13.53125 -22.3125 C 11.707031 -22.3125 10.195312 -21.890625 9 -21.046875 C 7.800781 -20.210938 6.910156 -19.050781 6.328125 -17.5625 C 5.742188 -16.070312 5.445312 -14.363281 5.4375 -12.4375 C 5.46875 -9.457031 6.15625 -7.066406 7.5 -5.265625 C 8.851562 -3.460938 10.863281 -2.5625 13.53125 -2.5625 C 15.21875 -2.5625 16.65625 -2.945312 17.84375 -3.71875 C 19.039062 -4.488281 19.945312 -5.617188 20.5625 -7.109375 L 23.96875 -6.09375 C 23.039062 -3.882812 21.6875 -2.203125 19.90625 -1.046875 C 18.132812 0.109375 16.007812 0.6875 13.53125 0.6875 Z M 13.53125 0.6875 "/></g></g></g><g fill="#ffffff" fill-opacity="1"><g transform="translate(413.323307, 49.489261)"><g><path d="M 13.75 0.6875 C 11.320312 0.6875 9.21875 0.148438 7.4375 -0.921875 C 5.664062 -1.992188 4.289062 -3.503906 3.3125 -5.453125 C 2.332031 -7.398438 1.84375 -9.6875 1.84375 -12.3125 C 1.84375 -15.03125 2.328125 -17.378906 3.296875 -19.359375 C 4.265625 -21.335938 5.625 -22.863281 7.375 -23.9375 C 9.132812 -25.019531 11.210938 -25.5625 13.609375 -25.5625 C 16.066406 -25.5625 18.160156 -24.992188 19.890625 -23.859375 C 21.628906 -22.734375 22.941406 -21.117188 23.828125 -19.015625 C 24.722656 -16.910156 25.128906 -14.398438 25.046875 -11.484375 L 21.59375 -11.484375 L 21.59375 -12.6875 C 21.53125 -15.90625 20.832031 -18.335938 19.5 -19.984375 C 18.175781 -21.628906 16.242188 -22.453125 13.703125 -22.453125 C 11.023438 -22.453125 8.976562 -21.582031 7.5625 -19.84375 C 6.144531 -18.113281 5.4375 -15.644531 5.4375 -12.4375 C 5.4375 -9.300781 6.144531 -6.867188 7.5625 -5.140625 C 8.976562 -3.421875 10.992188 -2.5625 13.609375 -2.5625 C 15.390625 -2.5625 16.941406 -2.96875 18.265625 -3.78125 C 19.597656 -4.601562 20.644531 -5.789062 21.40625 -7.34375 L 24.5625 -6.125 C 23.582031 -3.957031 22.132812 -2.28125 20.21875 -1.09375 C 18.3125 0.09375 16.15625 0.6875 13.75 0.6875 Z M 4.234375 -11.484375 L 4.234375 -14.328125 L 23.234375 -14.328125 L 23.234375 -11.484375 Z M 4.234375 -11.484375 "/></g></g></g><g fill="#ffffff" fill-opacity="1"><g transform="translate(439.313692, 49.489261)"><g><path d="M 3.875 0 L 3.875 -3.9375 L 7.8125 -3.9375 L 7.8125 0 Z M 3.875 0 "/></g></g></g></g></g><path stroke-linecap="butt" transform="matrix(0.75, 0, 0, 0.75, 260.772266, 552.757193)" fill="none" stroke-linejoin="miter" d="M 0.00156187 0.500826 L 327.678661 0.500826 " stroke="#f6f4f1" stroke-width="1" stroke-opacity="1" stroke-miterlimit="4"/></svg>