<svg xmlns="http://www.w3.org/2000/svg" xmlns:xlink="http://www.w3.org/1999/xlink" width="1640" zoomAndPan="magnify" viewBox="0 0 1230 693.000001" height="924" preserveAspectRatio="xMidYMid meet" version="1.0"><defs><g/><clipPath id="b1afcfecfc"><path d="M 0.886719 0 L 1229.113281 0 L 1229.113281 692 L 0.886719 692 Z M 0.886719 0 " clip-rule="nonzero"/></clipPath><clipPath id="62d7ef28df"><path d="M 0.886719 0 L 1229.113281 0 L 1229.113281 692 L 0.886719 692 Z M 0.886719 0 " clip-rule="nonzero"/></clipPath><clipPath id="e11bcdff22"><rect x="0" width="1230" y="0" height="692"/></clipPath><clipPath id="346c56ec2f"><path d="M 88.757812 226.21875 L 350.132812 226.21875 L 350.132812 487.589844 L 88.757812 487.589844 Z M 88.757812 226.21875 " clip-rule="nonzero"/></clipPath><clipPath id="f8b4ce89ac"><rect x="0" width="717" y="0" height="247"/></clipPath><clipPath id="6e2c8a9075"><rect x="0" width="728" y="0" height="102"/></clipPath></defs><g clip-path="url(#b1afcfecfc)"><g transform="matrix(1, 0, 0, 1, 0, -0.000000000000066872)"><g clip-path="url(#e11bcdff22)"><g clip-path="url(#62d7ef28df)"><rect x="-270.6" width="1771.2" fill="#ffffff" height="997.920001" y="-152.46" fill-opacity="1"/></g></g></g></g><g clip-path="url(#346c56ec2f)"><path fill="#1f5e5c" d="M 219.445312 477.1875 C 154.886719 477.1875 102.035156 426.0625 99.316406 362.132812 L 121.535156 362.132812 C 122.738281 386.855469 133.035156 410.015625 150.910156 427.734375 C 169.679688 446.398438 194.25 456.589844 220.28125 456.589844 C 220.648438 456.589844 221.011719 456.589844 221.328125 456.589844 C 275.484375 456.015625 319.34375 411.269531 319.082031 356.589844 C 318.347656 343.78125 313.539062 311.214844 285.414062 285.652344 C 261.578125 263.960938 234.5 259.570312 220.28125 258.835938 L 149.972656 258.835938 C 169.625 244.878906 193.570312 236.671875 219.445312 236.671875 C 285.730469 236.617188 339.675781 290.566406 339.675781 356.902344 C 339.675781 423.238281 285.730469 477.1875 219.445312 477.1875 Z M 164.503906 362.132812 L 188.289062 362.132812 C 202.457031 363.90625 214.21875 372.847656 218.976562 385.601562 C 223.417969 397.46875 220.019531 408.289062 217.511719 413.828125 C 189.332031 412.261719 166.699219 390.042969 164.503906 362.132812 Z M 113.117188 300.8125 L 218.714844 300.867188 C 234.132812 300.605469 248.773438 306.617188 259.851562 317.59375 C 270.777344 328.414062 276.789062 342.683594 276.738281 357.742188 C 276.683594 373.265625 270.359375 387.328125 260.164062 397.519531 C 260.847656 393.652344 261.265625 389.734375 261.265625 385.707031 C 261.265625 349.53125 233.246094 320.152344 198.796875 320.152344 L 104.964844 320.152344 C 107.109375 313.410156 109.875 306.929688 113.117188 300.8125 Z M 102.140625 330.503906 L 198.742188 330.503906 C 227.441406 330.503906 250.757812 355.230469 250.757812 385.65625 C 250.757812 393.289062 249.292969 400.605469 246.46875 407.503906 C 241.035156 410.382812 235.074219 412.316406 228.800781 413.257812 C 231.363281 405.625 233.246094 394.28125 228.644531 381.941406 C 222.476562 365.425781 207.367188 353.871094 189.125 351.730469 C 188.917969 351.730469 188.707031 351.675781 188.5 351.675781 L 99.316406 351.675781 C 99.632812 344.460938 100.574219 337.40625 102.140625 330.503906 Z M 137.214844 269.238281 L 219.96875 269.238281 C 232.566406 269.867188 256.925781 273.785156 278.359375 293.335938 C 303.660156 316.335938 307.945312 345.664062 308.625 356.902344 C 308.835938 405.625 269.628906 445.667969 221.171875 446.1875 C 197.75 446.449219 175.21875 437.25 158.230469 420.363281 C 142.339844 404.578125 133.136719 384.085938 131.988281 362.132812 L 154.101562 362.132812 C 156.351562 396.683594 185.046875 424.128906 220.125 424.390625 C 220.28125 424.390625 220.4375 424.441406 220.59375 424.441406 C 220.804688 424.441406 220.960938 424.390625 221.117188 424.390625 C 257.449219 424.078125 287.035156 394.332031 287.140625 357.792969 C 287.195312 339.914062 280.136719 323.03125 267.171875 310.222656 C 254.101562 297.257812 236.75 290.199219 218.609375 290.460938 L 119.285156 290.410156 C 124.460938 282.671875 130.472656 275.5625 137.214844 269.238281 Z M 219.445312 226.21875 C 185.9375 226.21875 155.355469 238.867188 132.25 259.671875 C 131.832031 259.988281 131.414062 260.300781 131.101562 260.71875 C 121.167969 269.867188 112.648438 280.53125 105.90625 292.34375 C 105.589844 292.761719 105.328125 293.183594 105.121094 293.703125 C 99.839844 303.164062 95.710938 313.359375 92.941406 324.128906 C 92.941406 324.179688 92.886719 324.230469 92.886719 324.285156 C 90.167969 334.738281 88.757812 345.664062 88.757812 356.902344 C 88.757812 428.9375 147.359375 487.589844 219.445312 487.589844 C 291.53125 487.589844 350.132812 428.9375 350.132812 356.902344 C 350.132812 284.867188 291.480469 226.21875 219.445312 226.21875 " fill-opacity="1" fill-rule="nonzero"/></g><g transform="matrix(1, 0, 0, 1, 416, 174)"><g clip-path="url(#f8b4ce89ac)"><g fill="#1f5e5c" fill-opacity="1"><g transform="translate(0.388592, 189.410039)"><g><path d="M 14.328125 0 L 14.328125 -129 L 35.921875 -129 L 35.921875 -20.25 L 92.90625 -20.25 L 92.90625 0 Z M 14.328125 0 "/></g></g></g><g fill="#1f5e5c" fill-opacity="1"><g transform="translate(95.969974, 189.410039)"><g><path d="M 14.328125 -111.4375 L 14.328125 -131.25 L 35.921875 -131.25 L 35.921875 -111.4375 Z M 14.328125 0 L 14.328125 -96.75 L 35.921875 -96.75 L 35.921875 0 Z M 14.328125 0 "/></g></g></g><g fill="#1f5e5c" fill-opacity="1"><g transform="translate(146.224107, 189.410039)"><g><path d="M 20.96875 0 L 20.96875 -98.28125 C 20.96875 -100.726562 21.054688 -103.425781 21.234375 -106.375 C 21.410156 -109.332031 21.914062 -112.273438 22.75 -115.203125 C 23.59375 -118.128906 25.117188 -120.789062 27.328125 -123.1875 C 30.066406 -126.226562 33.035156 -128.332031 36.234375 -129.5 C 39.429688 -130.664062 42.582031 -131.320312 45.6875 -131.46875 C 48.789062 -131.613281 51.507812 -131.6875 53.84375 -131.6875 L 65.9375 -131.6875 L 65.9375 -114.125 L 54.734375 -114.125 C 50.617188 -114.125 47.554688 -113.09375 45.546875 -111.03125 C 43.546875 -108.976562 42.546875 -106.28125 42.546875 -102.9375 L 42.546875 0 Z M 5.375 -79.828125 L 5.375 -96.75 L 65.9375 -96.75 L 65.9375 -79.828125 Z M 5.375 -79.828125 "/></g></g></g><g fill="#1f5e5c" fill-opacity="1"><g transform="translate(210.36289, 189.410039)"><g><path d="M 56.53125 2.6875 C 46.738281 2.6875 38.140625 0.566406 30.734375 -3.671875 C 23.328125 -7.910156 17.546875 -13.789062 13.390625 -21.3125 C 9.242188 -28.84375 7.171875 -37.503906 7.171875 -47.296875 C 7.171875 -57.867188 9.195312 -67.050781 13.25 -74.84375 C 17.3125 -82.644531 22.957031 -88.691406 30.1875 -92.984375 C 37.414062 -97.285156 45.78125 -99.4375 55.28125 -99.4375 C 65.3125 -99.4375 73.832031 -97.09375 80.84375 -92.40625 C 87.863281 -87.71875 93.078125 -81.101562 96.484375 -72.5625 C 99.890625 -64.019531 101.175781 -53.957031 100.34375 -42.375 L 78.921875 -42.375 L 78.921875 -50.25 C 78.859375 -60.769531 77.003906 -68.445312 73.359375 -73.28125 C 69.722656 -78.113281 63.992188 -80.53125 56.171875 -80.53125 C 47.328125 -80.53125 40.753906 -77.796875 36.453125 -72.328125 C 32.160156 -66.867188 30.015625 -58.882812 30.015625 -48.375 C 30.015625 -38.582031 32.160156 -31 36.453125 -25.625 C 40.753906 -20.25 47.03125 -17.5625 55.28125 -17.5625 C 60.59375 -17.5625 65.171875 -18.738281 69.015625 -21.09375 C 72.867188 -23.457031 75.84375 -26.878906 77.9375 -31.359375 L 99.265625 -24.90625 C 95.554688 -16.1875 89.832031 -9.40625 82.09375 -4.5625 C 74.363281 0.269531 65.84375 2.6875 56.53125 2.6875 Z M 23.203125 -42.375 L 23.203125 -58.671875 L 89.765625 -58.671875 L 89.765625 -42.375 Z M 23.203125 -42.375 "/></g></g></g><g fill="#1f5e5c" fill-opacity="1"><g transform="translate(318.21672, 189.410039)"><g/></g></g><g fill="#1f5e5c" fill-opacity="1"><g transform="translate(354.048549, 189.410039)"><g><path d="M 67.09375 2.6875 C 54.195312 2.6875 43.148438 -0.132812 33.953125 -5.78125 C 24.753906 -11.425781 17.691406 -19.296875 12.765625 -29.390625 C 7.835938 -39.484375 5.375 -51.1875 5.375 -64.5 C 5.375 -77.820312 7.835938 -89.53125 12.765625 -99.625 C 17.691406 -109.71875 24.753906 -117.582031 33.953125 -123.21875 C 43.148438 -128.863281 54.195312 -131.6875 67.09375 -131.6875 C 81.96875 -131.6875 94.363281 -127.96875 104.28125 -120.53125 C 114.195312 -113.101562 121.15625 -103.085938 125.15625 -90.484375 L 103.375 -84.484375 C 100.875 -92.898438 96.601562 -99.484375 90.5625 -104.234375 C 84.53125 -108.984375 76.707031 -111.359375 67.09375 -111.359375 C 58.4375 -111.359375 51.222656 -109.414062 45.453125 -105.53125 C 39.691406 -101.644531 35.363281 -96.191406 32.46875 -89.171875 C 29.570312 -82.160156 28.097656 -73.9375 28.046875 -64.5 C 28.046875 -55.0625 29.492188 -46.832031 32.390625 -39.8125 C 35.285156 -32.800781 39.628906 -27.351562 45.421875 -23.46875 C 51.210938 -19.59375 58.4375 -17.65625 67.09375 -17.65625 C 76.707031 -17.65625 84.53125 -20.039062 90.5625 -24.8125 C 96.601562 -29.59375 100.875 -36.164062 103.375 -44.53125 L 125.15625 -38.515625 C 121.15625 -25.921875 114.195312 -15.90625 104.28125 -8.46875 C 94.363281 -1.03125 81.96875 2.6875 67.09375 2.6875 Z M 67.09375 2.6875 "/></g></g></g><g fill="#1f5e5c" fill-opacity="1"><g transform="translate(486.357596, 189.410039)"><g><path d="M 12.546875 0 L 12.546875 -129 L 90.21875 -129 L 90.21875 -107.40625 L 34.125 -107.40625 L 34.125 -75.25 L 79.46875 -75.25 L 79.46875 -53.75 L 34.125 -53.75 L 34.125 0 Z M 12.546875 0 "/></g></g></g><g fill="#1f5e5c" fill-opacity="1"><g transform="translate(580.147414, 189.410039)"><g><path d="M 67.09375 2.6875 C 54.195312 2.6875 43.148438 -0.132812 33.953125 -5.78125 C 24.753906 -11.425781 17.691406 -19.296875 12.765625 -29.390625 C 7.835938 -39.484375 5.375 -51.1875 5.375 -64.5 C 5.375 -77.820312 7.835938 -89.53125 12.765625 -99.625 C 17.691406 -109.71875 24.753906 -117.582031 33.953125 -123.21875 C 43.148438 -128.863281 54.195312 -131.6875 67.09375 -131.6875 C 80 -131.6875 91.0625 -128.863281 100.28125 -123.21875 C 109.507812 -117.582031 116.585938 -109.71875 121.515625 -99.625 C 126.453125 -89.53125 128.921875 -77.820312 128.921875 -64.5 C 128.921875 -51.1875 126.453125 -39.484375 121.515625 -29.390625 C 116.585938 -19.296875 109.507812 -11.425781 100.28125 -5.78125 C 91.0625 -0.132812 80 2.6875 67.09375 2.6875 Z M 67.09375 -17.65625 C 75.757812 -17.59375 82.972656 -19.5 88.734375 -23.375 C 94.492188 -27.257812 98.820312 -32.722656 101.71875 -39.765625 C 104.613281 -46.816406 106.0625 -55.0625 106.0625 -64.5 C 106.0625 -73.9375 104.613281 -82.132812 101.71875 -89.09375 C 98.820312 -96.050781 94.492188 -101.46875 88.734375 -105.34375 C 82.972656 -109.226562 75.757812 -111.234375 67.09375 -111.359375 C 58.4375 -111.410156 51.238281 -109.492188 45.5 -105.609375 C 39.769531 -101.734375 35.457031 -96.269531 32.5625 -89.21875 C 29.664062 -82.175781 28.21875 -73.9375 28.21875 -64.5 C 28.21875 -55.0625 29.648438 -46.863281 32.515625 -39.90625 C 35.378906 -32.945312 39.691406 -27.523438 45.453125 -23.640625 C 51.222656 -19.765625 58.4375 -17.769531 67.09375 -17.65625 Z M 67.09375 -17.65625 "/></g></g></g></g></g><g transform="matrix(1, 0, 0, 1, 415, 402)"><g clip-path="url(#6e2c8a9075)"><g fill="#1f5e5c" fill-opacity="1"><g transform="translate(2.66169, 76.436707)"><g><path d="M 5.171875 0 L 5.171875 -53.15625 L 21.296875 -53.15625 C 21.867188 -53.15625 22.835938 -53.140625 24.203125 -53.109375 C 25.566406 -53.085938 26.875 -52.992188 28.125 -52.828125 C 32.164062 -52.253906 35.535156 -50.75 38.234375 -48.3125 C 40.941406 -45.882812 42.972656 -42.785156 44.328125 -39.015625 C 45.679688 -35.253906 46.359375 -31.109375 46.359375 -26.578125 C 46.359375 -22.046875 45.679688 -17.894531 44.328125 -14.125 C 42.972656 -10.363281 40.941406 -7.265625 38.234375 -4.828125 C 35.535156 -2.398438 32.164062 -0.898438 28.125 -0.328125 C 26.894531 -0.179688 25.578125 -0.0859375 24.171875 -0.046875 C 22.773438 -0.015625 21.816406 0 21.296875 0 Z M 10.78125 -5.203125 L 21.296875 -5.203125 C 22.304688 -5.203125 23.394531 -5.234375 24.5625 -5.296875 C 25.726562 -5.359375 26.734375 -5.472656 27.578125 -5.640625 C 30.671875 -6.179688 33.171875 -7.4375 35.078125 -9.40625 C 36.992188 -11.375 38.394531 -13.84375 39.28125 -16.8125 C 40.164062 -19.78125 40.609375 -23.035156 40.609375 -26.578125 C 40.609375 -30.148438 40.164062 -33.421875 39.28125 -36.390625 C 38.394531 -39.367188 36.988281 -41.832031 35.0625 -43.78125 C 33.144531 -45.726562 30.648438 -46.972656 27.578125 -47.515625 C 26.734375 -47.679688 25.710938 -47.796875 24.515625 -47.859375 C 23.328125 -47.921875 22.253906 -47.953125 21.296875 -47.953125 L 10.78125 -47.953125 Z M 10.78125 -5.203125 "/></g></g></g><g fill="#1f5e5c" fill-opacity="1"><g transform="translate(52.224351, 76.436707)"><g><path d="M 22.03125 1.109375 C 18.144531 1.109375 14.78125 0.25 11.9375 -1.46875 C 9.09375 -3.195312 6.882812 -5.625 5.3125 -8.75 C 3.738281 -11.875 2.953125 -15.539062 2.953125 -19.75 C 2.953125 -24.101562 3.726562 -27.867188 5.28125 -31.046875 C 6.832031 -34.222656 9.015625 -36.671875 11.828125 -38.390625 C 14.648438 -40.109375 17.976562 -40.96875 21.8125 -40.96875 C 25.75 -40.96875 29.109375 -40.0625 31.890625 -38.25 C 34.671875 -36.445312 36.773438 -33.859375 38.203125 -30.484375 C 39.628906 -27.117188 40.28125 -23.097656 40.15625 -18.421875 L 34.625 -18.421875 L 34.625 -20.34375 C 34.53125 -25.507812 33.414062 -29.40625 31.28125 -32.03125 C 29.15625 -34.664062 26.050781 -35.984375 21.96875 -35.984375 C 17.6875 -35.984375 14.40625 -34.59375 12.125 -31.8125 C 9.851562 -29.039062 8.71875 -25.082031 8.71875 -19.9375 C 8.71875 -14.914062 9.851562 -11.019531 12.125 -8.25 C 14.40625 -5.476562 17.632812 -4.09375 21.8125 -4.09375 C 24.664062 -4.09375 27.15625 -4.75 29.28125 -6.0625 C 31.414062 -7.382812 33.097656 -9.289062 34.328125 -11.78125 L 39.390625 -9.8125 C 37.816406 -6.34375 35.492188 -3.65625 32.421875 -1.75 C 29.359375 0.15625 25.894531 1.109375 22.03125 1.109375 Z M 6.796875 -18.421875 L 6.796875 -22.953125 L 37.25 -22.953125 L 37.25 -18.421875 Z M 6.796875 -18.421875 "/></g></g></g><g fill="#1f5e5c" fill-opacity="1"><g transform="translate(95.365614, 76.436707)"><g><path d="M 21.703125 1.109375 C 17.691406 1.109375 14.296875 0.210938 11.515625 -1.578125 C 8.734375 -3.378906 6.625 -5.859375 5.1875 -9.015625 C 3.75 -12.179688 3.003906 -15.820312 2.953125 -19.9375 C 3.003906 -24.113281 3.765625 -27.785156 5.234375 -30.953125 C 6.710938 -34.117188 8.84375 -36.578125 11.625 -38.328125 C 14.40625 -40.085938 17.78125 -40.96875 21.75 -40.96875 C 25.78125 -40.96875 29.289062 -39.984375 32.28125 -38.015625 C 35.269531 -36.046875 37.316406 -33.351562 38.421875 -29.9375 L 33.109375 -28.234375 C 32.171875 -30.617188 30.6875 -32.46875 28.65625 -33.78125 C 26.632812 -35.101562 24.316406 -35.765625 21.703125 -35.765625 C 18.773438 -35.765625 16.347656 -35.09375 14.421875 -33.75 C 12.503906 -32.414062 11.078125 -30.550781 10.140625 -28.15625 C 9.210938 -25.769531 8.738281 -23.03125 8.71875 -19.9375 C 8.757812 -15.15625 9.863281 -11.316406 12.03125 -8.421875 C 14.195312 -5.535156 17.421875 -4.09375 21.703125 -4.09375 C 24.410156 -4.09375 26.71875 -4.710938 28.625 -5.953125 C 30.53125 -7.203125 31.976562 -9.019531 32.96875 -11.40625 L 38.421875 -9.78125 C 36.953125 -6.238281 34.789062 -3.535156 31.9375 -1.671875 C 29.082031 0.179688 25.671875 1.109375 21.703125 1.109375 Z M 21.703125 1.109375 "/></g></g></g><g fill="#1f5e5c" fill-opacity="1"><g transform="translate(135.11145, 76.436707)"><g><path d="M 5.90625 -47.4375 L 5.90625 -53.53125 L 11.328125 -53.53125 L 11.328125 -47.4375 Z M 5.90625 0 L 5.90625 -39.875 L 11.328125 -39.875 L 11.328125 0 Z M 5.90625 0 "/></g></g></g><g fill="#1f5e5c" fill-opacity="1"><g transform="translate(152.345832, 76.436707)"><g><path d="M 20.046875 1.078125 C 15.367188 1.078125 11.519531 0.0664062 8.5 -1.953125 C 5.488281 -3.972656 3.640625 -6.78125 2.953125 -10.375 L 8.484375 -11.296875 C 9.078125 -9.035156 10.425781 -7.234375 12.53125 -5.890625 C 14.632812 -4.546875 17.238281 -3.875 20.34375 -3.875 C 23.363281 -3.875 25.75 -4.503906 27.5 -5.765625 C 29.25 -7.035156 30.125 -8.769531 30.125 -10.96875 C 30.125 -12.195312 29.84375 -13.195312 29.28125 -13.96875 C 28.726562 -14.75 27.601562 -15.46875 25.90625 -16.125 C 24.207031 -16.789062 21.675781 -17.582031 18.3125 -18.5 C 14.695312 -19.476562 11.863281 -20.457031 9.8125 -21.4375 C 7.769531 -22.425781 6.316406 -23.566406 5.453125 -24.859375 C 4.597656 -26.148438 4.171875 -27.734375 4.171875 -29.609375 C 4.171875 -31.867188 4.8125 -33.851562 6.09375 -35.5625 C 7.375 -37.269531 9.144531 -38.597656 11.40625 -39.546875 C 13.664062 -40.492188 16.300781 -40.96875 19.3125 -40.96875 C 22.3125 -40.96875 25 -40.484375 27.375 -39.515625 C 29.75 -38.546875 31.660156 -37.1875 33.109375 -35.4375 C 34.566406 -33.6875 35.429688 -31.65625 35.703125 -29.34375 L 30.15625 -28.34375 C 29.789062 -30.6875 28.628906 -32.539062 26.671875 -33.90625 C 24.710938 -35.269531 22.234375 -35.976562 19.234375 -36.03125 C 16.398438 -36.101562 14.097656 -35.566406 12.328125 -34.421875 C 10.554688 -33.273438 9.671875 -31.753906 9.671875 -29.859375 C 9.671875 -28.804688 9.988281 -27.90625 10.625 -27.15625 C 11.269531 -26.40625 12.429688 -25.695312 14.109375 -25.03125 C 15.796875 -24.363281 18.207031 -23.632812 21.34375 -22.84375 C 25.007812 -21.914062 27.882812 -20.929688 29.96875 -19.890625 C 32.0625 -18.859375 33.550781 -17.640625 34.4375 -16.234375 C 35.320312 -14.835938 35.765625 -13.101562 35.765625 -11.03125 C 35.765625 -7.269531 34.367188 -4.3125 31.578125 -2.15625 C 28.785156 0 24.941406 1.078125 20.046875 1.078125 Z M 20.046875 1.078125 "/></g></g></g><g fill="#1f5e5c" fill-opacity="1"><g transform="translate(191.095509, 76.436707)"><g><path d="M 5.90625 -47.4375 L 5.90625 -53.53125 L 11.328125 -53.53125 L 11.328125 -47.4375 Z M 5.90625 0 L 5.90625 -39.875 L 11.328125 -39.875 L 11.328125 0 Z M 5.90625 0 "/></g></g></g><g fill="#1f5e5c" fill-opacity="1"><g transform="translate(208.329891, 76.436707)"><g><path d="M 21.8125 1.109375 C 17.851562 1.109375 14.46875 0.210938 11.65625 -1.578125 C 8.851562 -3.378906 6.703125 -5.867188 5.203125 -9.046875 C 3.703125 -12.222656 2.953125 -15.863281 2.953125 -19.96875 C 2.953125 -24.15625 3.710938 -27.820312 5.234375 -30.96875 C 6.765625 -34.125 8.9375 -36.578125 11.75 -38.328125 C 14.570312 -40.085938 17.925781 -40.96875 21.8125 -40.96875 C 25.800781 -40.96875 29.203125 -40.078125 32.015625 -38.296875 C 34.835938 -36.515625 36.992188 -34.039062 38.484375 -30.875 C 39.972656 -27.71875 40.71875 -24.082031 40.71875 -19.96875 C 40.71875 -15.78125 39.96875 -12.101562 38.46875 -8.9375 C 36.96875 -5.78125 34.800781 -3.316406 31.96875 -1.546875 C 29.132812 0.222656 25.75 1.109375 21.8125 1.109375 Z M 21.8125 -4.09375 C 26.238281 -4.09375 29.535156 -5.5625 31.703125 -8.5 C 33.867188 -11.445312 34.953125 -15.269531 34.953125 -19.96875 C 34.953125 -24.789062 33.863281 -28.628906 31.6875 -31.484375 C 29.507812 -34.335938 26.21875 -35.765625 21.8125 -35.765625 C 18.832031 -35.765625 16.375 -35.09375 14.4375 -33.75 C 12.507812 -32.414062 11.070312 -30.5625 10.125 -28.1875 C 9.1875 -25.8125 8.71875 -23.070312 8.71875 -19.96875 C 8.71875 -15.164062 9.820312 -11.316406 12.03125 -8.421875 C 14.25 -5.535156 17.507812 -4.09375 21.8125 -4.09375 Z M 21.8125 -4.09375 "/></g></g></g><g fill="#1f5e5c" fill-opacity="1"><g transform="translate(251.987843, 76.436707)"><g><path d="M 33.96875 0 L 33.96875 -20.34375 C 33.96875 -22.550781 33.753906 -24.582031 33.328125 -26.4375 C 32.910156 -28.300781 32.238281 -29.925781 31.3125 -31.3125 C 30.394531 -32.707031 29.203125 -33.785156 27.734375 -34.546875 C 26.273438 -35.316406 24.5 -35.703125 22.40625 -35.703125 C 20.488281 -35.703125 18.796875 -35.367188 17.328125 -34.703125 C 15.867188 -34.035156 14.640625 -33.078125 13.640625 -31.828125 C 12.640625 -30.585938 11.878906 -29.082031 11.359375 -27.3125 C 10.847656 -25.539062 10.59375 -23.523438 10.59375 -21.265625 L 6.75 -22.109375 C 6.75 -26.191406 7.460938 -29.625 8.890625 -32.40625 C 10.316406 -35.1875 12.285156 -37.289062 14.796875 -38.71875 C 17.304688 -40.144531 20.1875 -40.859375 23.4375 -40.859375 C 25.820312 -40.859375 27.90625 -40.488281 29.6875 -39.75 C 31.476562 -39.019531 32.992188 -38.023438 34.234375 -36.765625 C 35.484375 -35.515625 36.488281 -34.082031 37.25 -32.46875 C 38.007812 -30.851562 38.5625 -29.140625 38.90625 -27.328125 C 39.25 -25.523438 39.421875 -23.722656 39.421875 -21.921875 L 39.421875 0 Z M 5.125 0 L 5.125 -39.875 L 10.046875 -39.875 L 10.046875 -30.046875 L 10.59375 -30.046875 L 10.59375 0 Z M 5.125 0 "/></g></g></g><g fill="#1f5e5c" fill-opacity="1"><g transform="translate(295.830304, 76.436707)"><g/></g></g><g fill="#1f5e5c" fill-opacity="1"><g transform="translate(310.592076, 76.436707)"><g><path d="M 5.90625 0 L 5.90625 -53.15625 L 11.328125 -53.15625 L 11.328125 0 Z M 5.90625 0 "/></g></g></g><g fill="#1f5e5c" fill-opacity="1"><g transform="translate(327.826458, 76.436707)"><g><path d="M 33.96875 0 L 33.96875 -20.34375 C 33.96875 -22.550781 33.753906 -24.582031 33.328125 -26.4375 C 32.910156 -28.300781 32.238281 -29.925781 31.3125 -31.3125 C 30.394531 -32.707031 29.203125 -33.785156 27.734375 -34.546875 C 26.273438 -35.316406 24.5 -35.703125 22.40625 -35.703125 C 20.488281 -35.703125 18.796875 -35.367188 17.328125 -34.703125 C 15.867188 -34.035156 14.640625 -33.078125 13.640625 -31.828125 C 12.640625 -30.585938 11.878906 -29.082031 11.359375 -27.3125 C 10.847656 -25.539062 10.59375 -23.523438 10.59375 -21.265625 L 6.75 -22.109375 C 6.75 -26.191406 7.460938 -29.625 8.890625 -32.40625 C 10.316406 -35.1875 12.285156 -37.289062 14.796875 -38.71875 C 17.304688 -40.144531 20.1875 -40.859375 23.4375 -40.859375 C 25.820312 -40.859375 27.90625 -40.488281 29.6875 -39.75 C 31.476562 -39.019531 32.992188 -38.023438 34.234375 -36.765625 C 35.484375 -35.515625 36.488281 -34.082031 37.25 -32.46875 C 38.007812 -30.851562 38.5625 -29.140625 38.90625 -27.328125 C 39.25 -25.523438 39.421875 -23.722656 39.421875 -21.921875 L 39.421875 0 Z M 5.125 0 L 5.125 -39.875 L 10.046875 -39.875 L 10.046875 -30.046875 L 10.59375 -30.046875 L 10.59375 0 Z M 5.125 0 "/></g></g></g><g fill="#1f5e5c" fill-opacity="1"><g transform="translate(371.668919, 76.436707)"><g><path d="M 26.875 0 C 24.632812 0.46875 22.425781 0.648438 20.25 0.546875 C 18.070312 0.453125 16.125 -0.0078125 14.40625 -0.84375 C 12.695312 -1.6875 11.398438 -2.992188 10.515625 -4.765625 C 9.804688 -6.242188 9.421875 -7.738281 9.359375 -9.25 C 9.296875 -10.757812 9.265625 -12.488281 9.265625 -14.4375 L 9.265625 -50.9375 L 14.65625 -50.9375 L 14.65625 -14.65625 C 14.65625 -12.976562 14.671875 -11.578125 14.703125 -10.453125 C 14.742188 -9.335938 15 -8.351562 15.46875 -7.5 C 16.351562 -5.84375 17.757812 -4.851562 19.6875 -4.53125 C 21.625 -4.21875 24.019531 -4.296875 26.875 -4.765625 Z M 0.734375 -35.21875 L 0.734375 -39.875 L 26.875 -39.875 L 26.875 -35.21875 Z M 0.734375 -35.21875 "/></g></g></g><g fill="#1f5e5c" fill-opacity="1"><g transform="translate(399.752846, 76.436707)"><g><path d="M 22.03125 1.109375 C 18.144531 1.109375 14.78125 0.25 11.9375 -1.46875 C 9.09375 -3.195312 6.882812 -5.625 5.3125 -8.75 C 3.738281 -11.875 2.953125 -15.539062 2.953125 -19.75 C 2.953125 -24.101562 3.726562 -27.867188 5.28125 -31.046875 C 6.832031 -34.222656 9.015625 -36.671875 11.828125 -38.390625 C 14.648438 -40.109375 17.976562 -40.96875 21.8125 -40.96875 C 25.75 -40.96875 29.109375 -40.0625 31.890625 -38.25 C 34.671875 -36.445312 36.773438 -33.859375 38.203125 -30.484375 C 39.628906 -27.117188 40.28125 -23.097656 40.15625 -18.421875 L 34.625 -18.421875 L 34.625 -20.34375 C 34.53125 -25.507812 33.414062 -29.40625 31.28125 -32.03125 C 29.15625 -34.664062 26.050781 -35.984375 21.96875 -35.984375 C 17.6875 -35.984375 14.40625 -34.59375 12.125 -31.8125 C 9.851562 -29.039062 8.71875 -25.082031 8.71875 -19.9375 C 8.71875 -14.914062 9.851562 -11.019531 12.125 -8.25 C 14.40625 -5.476562 17.632812 -4.09375 21.8125 -4.09375 C 24.664062 -4.09375 27.15625 -4.75 29.28125 -6.0625 C 31.414062 -7.382812 33.097656 -9.289062 34.328125 -11.78125 L 39.390625 -9.8125 C 37.816406 -6.34375 35.492188 -3.65625 32.421875 -1.75 C 29.359375 0.15625 25.894531 1.109375 22.03125 1.109375 Z M 6.796875 -18.421875 L 6.796875 -22.953125 L 37.25 -22.953125 L 37.25 -18.421875 Z M 6.796875 -18.421875 "/></g></g></g><g fill="#1f5e5c" fill-opacity="1"><g transform="translate(442.894109, 76.436707)"><g><path d="M 5.90625 0 L 5.90625 -54.265625 L 11.328125 -54.265625 L 11.328125 0 Z M 5.90625 0 "/></g></g></g><g fill="#1f5e5c" fill-opacity="1"><g transform="translate(460.128491, 76.436707)"><g><path d="M 5.90625 0 L 5.90625 -54.265625 L 11.328125 -54.265625 L 11.328125 0 Z M 5.90625 0 "/></g></g></g><g fill="#1f5e5c" fill-opacity="1"><g transform="translate(477.362873, 76.436707)"><g><path d="M 5.90625 -47.4375 L 5.90625 -53.53125 L 11.328125 -53.53125 L 11.328125 -47.4375 Z M 5.90625 0 L 5.90625 -39.875 L 11.328125 -39.875 L 11.328125 0 Z M 5.90625 0 "/></g></g></g><g fill="#1f5e5c" fill-opacity="1"><g transform="translate(494.597254, 76.436707)"><g><path d="M 21 18.828125 C 18.957031 18.828125 16.945312 18.523438 14.96875 17.921875 C 12.988281 17.316406 11.160156 16.367188 9.484375 15.078125 C 7.816406 13.785156 6.414062 12.109375 5.28125 10.046875 L 10.1875 7.3125 C 11.289062 9.519531 12.84375 11.109375 14.84375 12.078125 C 16.851562 13.054688 18.90625 13.546875 21 13.546875 C 23.882812 13.546875 26.21875 13.007812 28 11.9375 C 29.78125 10.875 31.078125 9.296875 31.890625 7.203125 C 32.703125 5.109375 33.097656 2.5 33.078125 -0.625 L 33.078125 -11.265625 L 33.703125 -11.265625 L 33.703125 -39.875 L 38.53125 -39.875 L 38.53125 -0.546875 C 38.53125 0.578125 38.5 1.660156 38.4375 2.703125 C 38.382812 3.753906 38.269531 4.785156 38.09375 5.796875 C 37.625 8.773438 36.65625 11.222656 35.1875 13.140625 C 33.726562 15.054688 31.8125 16.484375 29.4375 17.421875 C 27.0625 18.359375 24.25 18.828125 21 18.828125 Z M 20.640625 1.109375 C 16.921875 1.109375 13.742188 0.179688 11.109375 -1.671875 C 8.472656 -3.535156 6.453125 -6.050781 5.046875 -9.21875 C 3.648438 -12.394531 2.953125 -15.976562 2.953125 -19.96875 C 2.953125 -23.925781 3.644531 -27.492188 5.03125 -30.671875 C 6.425781 -33.847656 8.425781 -36.359375 11.03125 -38.203125 C 13.644531 -40.046875 16.769531 -40.96875 20.40625 -40.96875 C 24.15625 -40.96875 27.304688 -40.054688 29.859375 -38.234375 C 32.421875 -36.421875 34.359375 -33.929688 35.671875 -30.765625 C 36.992188 -27.609375 37.65625 -24.007812 37.65625 -19.96875 C 37.65625 -16.007812 37 -12.4375 35.6875 -9.25 C 34.382812 -6.0625 32.46875 -3.535156 29.9375 -1.671875 C 27.40625 0.179688 24.304688 1.109375 20.640625 1.109375 Z M 21.1875 -3.953125 C 24.019531 -3.953125 26.359375 -4.640625 28.203125 -6.015625 C 30.046875 -7.390625 31.421875 -9.289062 32.328125 -11.71875 C 33.242188 -14.144531 33.703125 -16.894531 33.703125 -19.96875 C 33.703125 -23.09375 33.242188 -25.851562 32.328125 -28.25 C 31.421875 -30.65625 30.050781 -32.535156 28.21875 -33.890625 C 26.382812 -35.242188 24.078125 -35.921875 21.296875 -35.921875 C 18.441406 -35.921875 16.078125 -35.21875 14.203125 -33.8125 C 12.335938 -32.40625 10.957031 -30.492188 10.0625 -28.078125 C 9.164062 -25.671875 8.71875 -22.96875 8.71875 -19.96875 C 8.71875 -16.945312 9.175781 -14.222656 10.09375 -11.796875 C 11.019531 -9.367188 12.40625 -7.453125 14.25 -6.046875 C 16.09375 -4.648438 18.40625 -3.953125 21.1875 -3.953125 Z M 21.1875 -3.953125 "/></g></g></g><g fill="#1f5e5c" fill-opacity="1"><g transform="translate(538.292098, 76.436707)"><g><path d="M 22.03125 1.109375 C 18.144531 1.109375 14.78125 0.25 11.9375 -1.46875 C 9.09375 -3.195312 6.882812 -5.625 5.3125 -8.75 C 3.738281 -11.875 2.953125 -15.539062 2.953125 -19.75 C 2.953125 -24.101562 3.726562 -27.867188 5.28125 -31.046875 C 6.832031 -34.222656 9.015625 -36.671875 11.828125 -38.390625 C 14.648438 -40.109375 17.976562 -40.96875 21.8125 -40.96875 C 25.75 -40.96875 29.109375 -40.0625 31.890625 -38.25 C 34.671875 -36.445312 36.773438 -33.859375 38.203125 -30.484375 C 39.628906 -27.117188 40.28125 -23.097656 40.15625 -18.421875 L 34.625 -18.421875 L 34.625 -20.34375 C 34.53125 -25.507812 33.414062 -29.40625 31.28125 -32.03125 C 29.15625 -34.664062 26.050781 -35.984375 21.96875 -35.984375 C 17.6875 -35.984375 14.40625 -34.59375 12.125 -31.8125 C 9.851562 -29.039062 8.71875 -25.082031 8.71875 -19.9375 C 8.71875 -14.914062 9.851562 -11.019531 12.125 -8.25 C 14.40625 -5.476562 17.632812 -4.09375 21.8125 -4.09375 C 24.664062 -4.09375 27.15625 -4.75 29.28125 -6.0625 C 31.414062 -7.382812 33.097656 -9.289062 34.328125 -11.78125 L 39.390625 -9.8125 C 37.816406 -6.34375 35.492188 -3.65625 32.421875 -1.75 C 29.359375 0.15625 25.894531 1.109375 22.03125 1.109375 Z M 6.796875 -18.421875 L 6.796875 -22.953125 L 37.25 -22.953125 L 37.25 -18.421875 Z M 6.796875 -18.421875 "/></g></g></g><g fill="#1f5e5c" fill-opacity="1"><g transform="translate(580.325981, 76.436707)"><g><path d="M 33.96875 0 L 33.96875 -20.34375 C 33.96875 -22.550781 33.753906 -24.582031 33.328125 -26.4375 C 32.910156 -28.300781 32.238281 -29.925781 31.3125 -31.3125 C 30.394531 -32.707031 29.203125 -33.785156 27.734375 -34.546875 C 26.273438 -35.316406 24.5 -35.703125 22.40625 -35.703125 C 20.488281 -35.703125 18.796875 -35.367188 17.328125 -34.703125 C 15.867188 -34.035156 14.640625 -33.078125 13.640625 -31.828125 C 12.640625 -30.585938 11.878906 -29.082031 11.359375 -27.3125 C 10.847656 -25.539062 10.59375 -23.523438 10.59375 -21.265625 L 6.75 -22.109375 C 6.75 -26.191406 7.460938 -29.625 8.890625 -32.40625 C 10.316406 -35.1875 12.285156 -37.289062 14.796875 -38.71875 C 17.304688 -40.144531 20.1875 -40.859375 23.4375 -40.859375 C 25.820312 -40.859375 27.90625 -40.488281 29.6875 -39.75 C 31.476562 -39.019531 32.992188 -38.023438 34.234375 -36.765625 C 35.484375 -35.515625 36.488281 -34.082031 37.25 -32.46875 C 38.007812 -30.851562 38.5625 -29.140625 38.90625 -27.328125 C 39.25 -25.523438 39.421875 -23.722656 39.421875 -21.921875 L 39.421875 0 Z M 5.125 0 L 5.125 -39.875 L 10.046875 -39.875 L 10.046875 -30.046875 L 10.59375 -30.046875 L 10.59375 0 Z M 5.125 0 "/></g></g></g><g fill="#1f5e5c" fill-opacity="1"><g transform="translate(623.910042, 76.436707)"><g><path d="M 21.703125 1.109375 C 17.691406 1.109375 14.296875 0.210938 11.515625 -1.578125 C 8.734375 -3.378906 6.625 -5.859375 5.1875 -9.015625 C 3.75 -12.179688 3.003906 -15.820312 2.953125 -19.9375 C 3.003906 -24.113281 3.765625 -27.785156 5.234375 -30.953125 C 6.710938 -34.117188 8.84375 -36.578125 11.625 -38.328125 C 14.40625 -40.085938 17.78125 -40.96875 21.75 -40.96875 C 25.78125 -40.96875 29.289062 -39.984375 32.28125 -38.015625 C 35.269531 -36.046875 37.316406 -33.351562 38.421875 -29.9375 L 33.109375 -28.234375 C 32.171875 -30.617188 30.6875 -32.46875 28.65625 -33.78125 C 26.632812 -35.101562 24.316406 -35.765625 21.703125 -35.765625 C 18.773438 -35.765625 16.347656 -35.09375 14.421875 -33.75 C 12.503906 -32.414062 11.078125 -30.550781 10.140625 -28.15625 C 9.210938 -25.769531 8.738281 -23.03125 8.71875 -19.9375 C 8.757812 -15.15625 9.863281 -11.316406 12.03125 -8.421875 C 14.195312 -5.535156 17.421875 -4.09375 21.703125 -4.09375 C 24.410156 -4.09375 26.71875 -4.710938 28.625 -5.953125 C 30.53125 -7.203125 31.976562 -9.019531 32.96875 -11.40625 L 38.421875 -9.78125 C 36.953125 -6.238281 34.789062 -3.535156 31.9375 -1.671875 C 29.082031 0.179688 25.671875 1.109375 21.703125 1.109375 Z M 21.703125 1.109375 "/></g></g></g><g fill="#1f5e5c" fill-opacity="1"><g transform="translate(663.655878, 76.436707)"><g><path d="M 22.03125 1.109375 C 18.144531 1.109375 14.78125 0.25 11.9375 -1.46875 C 9.09375 -3.195312 6.882812 -5.625 5.3125 -8.75 C 3.738281 -11.875 2.953125 -15.539062 2.953125 -19.75 C 2.953125 -24.101562 3.726562 -27.867188 5.28125 -31.046875 C 6.832031 -34.222656 9.015625 -36.671875 11.828125 -38.390625 C 14.648438 -40.109375 17.976562 -40.96875 21.8125 -40.96875 C 25.75 -40.96875 29.109375 -40.0625 31.890625 -38.25 C 34.671875 -36.445312 36.773438 -33.859375 38.203125 -30.484375 C 39.628906 -27.117188 40.28125 -23.097656 40.15625 -18.421875 L 34.625 -18.421875 L 34.625 -20.34375 C 34.53125 -25.507812 33.414062 -29.40625 31.28125 -32.03125 C 29.15625 -34.664062 26.050781 -35.984375 21.96875 -35.984375 C 17.6875 -35.984375 14.40625 -34.59375 12.125 -31.8125 C 9.851562 -29.039062 8.71875 -25.082031 8.71875 -19.9375 C 8.71875 -14.914062 9.851562 -11.019531 12.125 -8.25 C 14.40625 -5.476562 17.632812 -4.09375 21.8125 -4.09375 C 24.664062 -4.09375 27.15625 -4.75 29.28125 -6.0625 C 31.414062 -7.382812 33.097656 -9.289062 34.328125 -11.78125 L 39.390625 -9.8125 C 37.816406 -6.34375 35.492188 -3.65625 32.421875 -1.75 C 29.359375 0.15625 25.894531 1.109375 22.03125 1.109375 Z M 6.796875 -18.421875 L 6.796875 -22.953125 L 37.25 -22.953125 L 37.25 -18.421875 Z M 6.796875 -18.421875 "/></g></g></g><g fill="#1f5e5c" fill-opacity="1"><g transform="translate(705.320635, 76.436707)"><g><path d="M 6.203125 0 L 6.203125 -6.3125 L 12.515625 -6.3125 L 12.515625 0 Z M 6.203125 0 "/></g></g></g></g></g><path stroke-linecap="butt" transform="matrix(0.748919, -0.000935054, 0.000935054, 0.748919, 574.293923, 403.744704)" fill="none" stroke-linejoin="miter" d="M -0.00190158 0.502576 L 522.736126 0.498037 " stroke="#1f5e5c" stroke-width="1" stroke-opacity="1" stroke-miterlimit="4"/></svg>