<svg xmlns="http://www.w3.org/2000/svg" xmlns:xlink="http://www.w3.org/1999/xlink" width="1024" zoomAndPan="magnify" viewBox="0 0 768 767.999994" height="1024" preserveAspectRatio="xMidYMid meet" version="1.0"><defs><clipPath id="a4b0fe637a"><path d="M 0 0 L 768 0 L 768 768 L 0 768 Z M 0 0 " clip-rule="nonzero"/></clipPath><clipPath id="25c20c5013"><rect x="0" width="768" y="0" height="768"/></clipPath><clipPath id="8f4169b5e1"><path d="M 164.558594 164.90625 L 602.558594 164.90625 L 602.558594 602.90625 L 164.558594 602.90625 Z M 164.558594 164.90625 " clip-rule="nonzero"/></clipPath></defs><rect x="-76.8" width="921.6" fill="#ffffff" y="-76.799999" height="921.599993" fill-opacity="1"/><rect x="-76.8" width="921.6" fill="#f6f4f1" y="-76.799999" height="921.599993" fill-opacity="1"/><g transform="matrix(1, 0, 0, 1, 0, -0.000000000000057351)"><g clip-path="url(#25c20c5013)"><g clip-path="url(#a4b0fe637a)"><rect x="-168.96" width="1105.92" fill="#1f5e5c" height="1105.919991" y="-168.959999" fill-opacity="1"/></g></g></g><g clip-path="url(#8f4169b5e1)"><path fill="#f6f4f1" d="M 383.648438 585.644531 C 275.417969 585.644531 186.816406 499.9375 182.261719 392.757812 L 219.503906 392.757812 C 221.523438 434.210938 238.785156 473.03125 268.753906 502.738281 C 300.21875 534.023438 341.40625 551.113281 385.050781 551.113281 C 385.664062 551.113281 386.277344 551.113281 386.804688 551.113281 C 477.589844 550.152344 551.117188 475.136719 550.679688 383.46875 C 549.453125 361.996094 541.390625 307.402344 494.242188 264.546875 C 454.28125 228.179688 408.886719 220.820312 385.050781 219.589844 L 267.179688 219.589844 C 300.128906 196.191406 340.265625 182.433594 383.648438 182.433594 C 494.769531 182.34375 585.207031 272.785156 585.207031 383.996094 C 585.207031 495.203125 494.769531 585.644531 383.648438 585.644531 Z M 291.539062 392.757812 L 331.414062 392.757812 C 355.164062 395.734375 374.882812 410.722656 382.859375 432.105469 C 390.308594 452 384.613281 470.140625 380.40625 479.425781 C 333.167969 476.796875 295.222656 439.554688 291.539062 392.757812 Z M 205.398438 289.960938 L 382.421875 290.050781 C 408.273438 289.613281 432.8125 299.691406 451.390625 318.09375 C 469.703125 336.234375 479.78125 360.160156 479.695312 385.398438 C 479.605469 411.425781 469 434.996094 451.914062 452.085938 C 453.054688 445.601562 453.753906 439.03125 453.753906 432.28125 C 453.753906 371.636719 406.78125 322.386719 349.03125 322.386719 L 191.726562 322.386719 C 195.320312 311.082031 199.960938 300.214844 205.398438 289.960938 Z M 186.996094 339.738281 L 348.941406 339.738281 C 397.054688 339.738281 436.140625 381.191406 436.140625 432.195312 C 436.140625 444.988281 433.6875 457.257812 428.953125 468.824219 C 419.839844 473.644531 409.847656 476.886719 399.332031 478.464844 C 403.628906 465.667969 406.78125 446.652344 399.070312 425.96875 C 388.730469 398.28125 363.402344 378.910156 332.816406 375.320312 C 332.46875 375.320312 332.117188 375.230469 331.765625 375.230469 L 182.261719 375.230469 C 182.789062 363.136719 184.367188 351.304688 186.996094 339.738281 Z M 245.796875 237.03125 L 384.523438 237.03125 C 405.644531 238.082031 446.480469 244.65625 482.410156 277.429688 C 524.828125 315.988281 532.011719 365.152344 533.152344 383.996094 C 533.503906 465.667969 467.777344 532.800781 386.539062 533.675781 C 347.277344 534.113281 309.507812 518.6875 281.023438 490.382812 C 254.382812 463.917969 238.960938 429.566406 237.03125 392.757812 L 274.101562 392.757812 C 277.871094 450.6875 325.980469 496.695312 384.785156 497.132812 C 385.050781 497.132812 385.308594 497.21875 385.574219 497.21875 C 385.925781 497.21875 386.1875 497.132812 386.449219 497.132812 C 447.355469 496.605469 496.960938 446.742188 497.132812 385.484375 C 497.222656 355.511719 485.390625 327.207031 463.65625 305.734375 C 441.75 284 412.65625 272.171875 382.242188 272.609375 L 215.734375 272.523438 C 224.414062 259.550781 234.492188 247.632812 245.796875 237.03125 Z M 383.648438 164.90625 C 327.472656 164.90625 276.203125 186.113281 237.46875 220.992188 C 236.769531 221.519531 236.070312 222.042969 235.542969 222.746094 C 218.890625 238.082031 204.605469 255.957031 193.304688 275.765625 C 192.777344 276.464844 192.339844 277.167969 191.988281 278.042969 C 183.136719 293.90625 176.214844 310.992188 171.570312 329.046875 C 171.570312 329.132812 171.480469 329.222656 171.480469 329.3125 C 166.925781 346.839844 164.558594 365.152344 164.558594 383.996094 C 164.558594 504.757812 262.800781 603.082031 383.648438 603.082031 C 504.492188 603.082031 602.734375 504.757812 602.734375 383.996094 C 602.734375 263.230469 504.410156 164.90625 383.648438 164.90625 " fill-opacity="1" fill-rule="nonzero"/></g></svg>